<svg width="172" height="16" viewBox="0 0 172 16" fill="none" xmlns="http://www.w3.org/2000/svg">
<path d="M1 7C0.447715 7 0 7.44772 0 8C0 8.55228 0.447715 9 1 9V7ZM171.707 8.70711C172.098 8.31658 172.098 7.68342 171.707 7.29289L165.343 0.928932C164.953 0.538408 164.319 0.538408 163.929 0.928932C163.538 1.31946 163.538 1.95262 163.929 2.34315L169.586 8L163.929 13.6569C163.538 14.0474 163.538 14.6805 163.929 15.0711C164.319 15.4616 164.953 15.4616 165.343 15.0711L171.707 8.70711ZM1 9H171V7H1V9Z" fill="black"/>
</svg>
