<svg width="20" height="20" viewBox="0 0 20 20" fill="none" xmlns="http://www.w3.org/2000/svg">
<path d="M10.0003 1.66667C14.6028 1.66667 18.3337 5.3975 18.3337 10C18.3337 14.6025 14.6028 18.3333 10.0003 18.3333C5.39783 18.3333 1.66699 14.6025 1.66699 10C1.66699 5.3975 5.39783 1.66667 10.0003 1.66667ZM10.0003 3.33333C8.23222 3.33333 6.53652 4.03571 5.28628 5.28596C4.03604 6.5362 3.33366 8.23189 3.33366 10C3.33366 11.7681 4.03604 13.4638 5.28628 14.714C6.53652 15.9643 8.23222 16.6667 10.0003 16.6667C11.7684 16.6667 13.4641 15.9643 14.7144 14.714C15.9646 13.4638 16.667 11.7681 16.667 10C16.667 8.23189 15.9646 6.5362 14.7144 5.28596C13.4641 4.03571 11.7684 3.33333 10.0003 3.33333ZM10.0003 5C10.2044 5.00003 10.4014 5.07496 10.554 5.2106C10.7065 5.34623 10.8039 5.53313 10.8278 5.73583L10.8337 5.83333V9.655L13.0895 11.9108C13.2389 12.0608 13.3257 12.262 13.3322 12.4737C13.3386 12.6853 13.2643 12.8914 13.1243 13.0502C12.9843 13.209 12.789 13.3086 12.5783 13.3287C12.3675 13.3487 12.157 13.2878 11.9895 13.1583L11.9112 13.0892L9.41116 10.5892C9.28164 10.4595 9.19846 10.2908 9.17449 10.1092L9.16699 10V5.83333C9.16699 5.61232 9.25479 5.40036 9.41107 5.24408C9.56735 5.0878 9.77931 5 10.0003 5Z" fill="#8F9294"/>
</svg>
