<svg width="84" height="84" viewBox="0 0 84 84" fill="none" xmlns="http://www.w3.org/2000/svg">
<path d="M76.4136 30.4761L18.0803 1.30945C15.7782 0.163659 13.1787 -0.244252 10.6363 0.141336C8.09385 0.526924 5.73221 1.68725 3.87334 3.4641C2.01448 5.24096 0.748848 7.54788 0.249015 10.0703C-0.250819 12.5928 0.0394675 15.208 1.0803 17.5595L11.0803 39.9345C11.3072 40.4754 11.4241 41.0562 11.4241 41.6428C11.4241 42.2294 11.3072 42.8102 11.0803 43.3511L1.0803 65.7261C0.233212 67.6291 -0.124889 69.7136 0.0385331 71.7901C0.201956 73.8667 0.881721 75.8695 2.01605 77.6166C3.15039 79.3636 4.70332 80.7995 6.53372 81.7937C8.36413 82.7879 10.414 83.3089 12.497 83.3094C14.4479 83.29 16.3698 82.8344 18.122 81.9761L76.4553 52.8095C78.5245 51.7686 80.2637 50.1732 81.479 48.2014C82.6943 46.2297 83.3379 43.959 83.3379 41.6428C83.3379 39.3266 82.6943 37.0559 81.479 35.0841C80.2637 33.1124 78.5245 31.517 76.4553 30.4761H76.4136ZM72.7053 45.3511L14.372 74.5178C13.606 74.8856 12.7458 75.0104 11.9069 74.8755C11.068 74.7406 10.2903 74.3524 9.67826 73.763C9.0662 73.1736 8.64896 72.4112 8.48251 71.5779C8.31605 70.7447 8.40832 69.8804 8.74696 69.1011L18.7053 46.7261C18.8342 46.4273 18.9455 46.1213 19.0386 45.8095H47.747C48.852 45.8095 49.9118 45.3705 50.6932 44.5891C51.4746 43.8077 51.9136 42.7479 51.9136 41.6428C51.9136 40.5377 51.4746 39.4779 50.6932 38.6965C49.9118 37.9151 48.852 37.4761 47.747 37.4761H19.0386C18.9455 37.1643 18.8342 36.8582 18.7053 36.5595L8.74696 14.1845C8.40832 13.4051 8.31605 12.5409 8.48251 11.7077C8.64896 10.8744 9.0662 10.112 9.67826 9.52257C10.2903 8.93317 11.068 8.545 11.9069 8.41009C12.7458 8.27518 13.606 8.39999 14.372 8.76779L72.7053 37.9345C73.3878 38.2841 73.9606 38.8153 74.3605 39.4696C74.7605 40.1239 74.9721 40.8759 74.9721 41.6428C74.9721 42.4096 74.7605 43.1616 74.3605 43.8159C73.9606 44.4702 73.3878 45.0015 72.7053 45.3511Z" fill="#202020"/>
</svg>
