<svg width="1440" height="579" viewBox="0 0 1440 579" fill="none" xmlns="http://www.w3.org/2000/svg">
<path d="M1527 0.999969C1465.91 61.6526 1402.04 117.208 1333.6 158.013C1311.41 171.244 1288.61 182.962 1264.9 188.205C1216.56 198.895 1167.53 182.2 1118.65 179.96C1056.58 177.112 994.151 198.523 939.206 240.523C897.864 272.127 851.35 317.969 804.583 329.474C762.098 339.924 716.395 283.062 678.772 260.876C640.235 238.154 597.135 233.314 556.437 245.003C535.117 251.127 514.379 261.784 495.259 276.834C476.974 291.23 461.046 318.021 439.369 296.965C432.204 290.005 427.251 279.28 421.093 270.513C399.693 240.047 362.27 237.666 339.124 265.3" stroke="#ECF0F1" stroke-width="0.552088" stroke-miterlimit="10"/>
<path d="M1524.31 2.90182C1464.61 64.3683 1401.39 120.507 1333.33 161.162C1310.67 174.722 1287.38 186.085 1263.26 191.935C1234.15 198.938 1204.74 196.343 1175.23 192.651C1155.09 190.132 1134.9 187.1 1114.73 186.252C1074.9 184.581 1034.92 191.811 996.801 207.038C974.515 215.942 952.87 227.588 932.242 241.859C917.75 251.834 902.682 263.39 887.227 274.642C865.491 290.421 842.984 305.583 820.114 315.292C811.904 318.792 803.65 321.589 795.387 323.426C761.227 330.99 725.041 298.957 692.492 275.391C683.766 269.044 675.303 263.304 667.201 259.098C633.904 241.653 597.591 237.276 562.445 244.874C556.393 246.181 550.374 247.842 544.405 249.856C523.12 257.03 502.4 268.62 483.111 284.193C471.688 293.419 461.093 307.15 449.437 311.489C442.26 314.162 434.716 313.224 426.323 305.591C418.99 298.922 413.757 288.617 407.37 280.15C385.201 250.712 347.478 248.117 323.666 275.396" stroke="#ECF0F1" stroke-width="0.552088" stroke-miterlimit="10"/>
<path d="M1521.61 4.79895C1463.3 67.0835 1400.75 123.8 1333.06 164.305C1309.92 178.199 1286.15 189.207 1261.61 195.657C1232.13 203.307 1202.28 201.439 1172.3 198.261C1151.84 196.094 1131.31 193.314 1110.81 192.535C1070.3 190.984 1029.66 197.585 990.911 211.44C968.257 219.54 946.259 230.14 925.271 243.187C910.494 252.279 895.175 262.85 879.494 273.095C857.417 287.444 834.6 301.132 811.321 309.951C802.978 313.138 794.589 315.695 786.178 317.374C751.347 324.265 714.457 293.778 681.316 272.11C672.452 266.259 663.847 261.068 655.622 257.325C621.871 241.966 585.473 239.435 550.374 248.823C544.334 250.433 538.327 252.404 532.366 254.708C511.113 262.932 490.411 275.455 470.958 291.555C459.432 301.098 448.657 314.898 436.783 319.451C429.465 322.256 421.794 321.46 413.272 314.221C405.765 307.844 400.258 297.963 393.641 289.791C370.707 261.381 332.677 258.571 308.206 285.49" stroke="#ECF0F1" stroke-width="0.552088" stroke-miterlimit="10"/>
<path d="M1518.92 6.69662C1462 69.7949 1400.1 127.098 1332.79 167.449C1309.17 181.673 1284.93 192.325 1259.97 199.384C1230.11 207.684 1199.82 206.541 1169.39 203.877C1148.6 202.065 1127.73 199.538 1106.89 198.818C1065.72 197.392 1024.41 203.358 985.031 215.839C962.005 223.138 939.678 232.775 918.307 244.51C903.259 252.777 887.672 262.302 871.77 271.545C849.348 284.463 826.228 296.678 802.54 304.602C794.068 307.476 785.536 309.793 776.985 311.318C741.479 317.537 703.853 288.724 670.152 268.821C661.141 263.497 652.41 258.803 644.055 255.539C609.874 242.185 573.364 241.581 538.318 252.764C532.287 254.683 526.291 256.953 520.343 259.552C499.125 268.825 478.441 282.283 458.822 298.91C447.193 308.769 436.241 322.638 424.147 327.405C416.688 330.347 408.89 329.696 400.235 322.839C392.555 316.757 386.774 307.292 379.927 299.415C356.224 272.033 317.895 269.005 292.757 295.573" stroke="#ECF0F1" stroke-width="0.552088" stroke-miterlimit="10"/>
<path d="M1516.22 8.59851C1460.69 72.5106 1399.45 130.396 1332.52 170.602C1308.42 185.16 1283.71 195.525 1258.33 203.114C1228.11 212.147 1197.37 211.646 1166.46 209.501C1145.35 208.04 1124.15 205.77 1102.97 205.115C1061.14 203.813 1019.16 209.149 979.147 220.255C955.753 226.749 933.072 235.366 911.342 245.851C896.009 253.252 880.171 261.771 864.042 270.016C841.279 281.503 817.85 292.245 793.752 299.274C785.148 301.835 776.478 303.912 767.785 305.279C731.608 310.825 693.272 283.598 658.982 265.549C649.83 260.73 640.969 256.554 632.485 253.77C597.88 242.42 561.255 243.744 526.256 256.717C520.234 258.94 514.25 261.514 508.313 264.41C487.131 274.732 466.461 289.123 446.678 306.272C434.946 316.449 423.817 330.382 411.502 335.367C403.901 338.447 395.974 337.942 387.192 331.47C379.335 325.683 373.284 316.638 366.207 309.056C341.736 282.703 303.103 279.46 277.306 305.669" stroke="#ECF0F1" stroke-width="0.552088" stroke-miterlimit="10"/>
<path d="M1513.53 10.4956C1459.39 75.2257 1398.81 133.694 1332.25 173.745C1307.68 188.633 1282.49 198.66 1256.69 206.836C1226.09 216.533 1194.91 216.743 1163.54 215.111C1142.11 214.006 1120.57 211.989 1099.05 211.393C1056.55 210.216 1013.91 214.918 973.263 224.654C949.498 230.346 926.467 237.936 904.378 247.174C888.761 253.706 872.682 261.283 856.315 268.465C833.225 278.603 809.466 287.705 784.968 293.924C776.228 296.143 767.425 298.01 758.585 299.218C721.734 304.092 682.694 278.445 647.812 262.259C638.522 257.946 629.525 254.288 620.911 251.984C585.886 242.626 549.143 245.889 514.191 260.657C508.18 263.189 502.208 266.063 496.277 269.253C475.131 280.629 454.476 295.954 434.527 313.626C422.692 324.12 411.384 338.121 398.851 343.321C391.109 346.537 383.052 346.178 374.144 340.091C366.11 334.6 359.788 325.974 352.481 318.689C327.244 293.363 288.308 289.906 261.845 315.759" stroke="#ECF0F1" stroke-width="0.552088" stroke-miterlimit="10"/>
<path d="M1510.84 12.3975C1458.09 77.9414 1398.16 136.992 1331.98 176.893C1306.93 192.115 1281.26 201.795 1255.04 210.567C1224.08 220.928 1192.46 221.844 1160.62 220.731C1138.86 219.977 1116.99 218.217 1095.13 217.685C1051.97 216.632 1008.66 220.705 967.38 229.061C943.247 233.948 919.859 240.514 897.413 248.506C881.511 254.169 865.182 260.752 848.591 266.924C825.156 275.644 801.091 283.246 776.184 288.583C767.314 290.485 758.37 292.121 749.389 293.166C711.866 297.368 672.122 273.301 636.646 258.974C627.216 255.167 618.09 252.023 609.341 250.207C573.897 242.84 537.034 248.044 502.129 264.602C496.127 267.438 490.167 270.616 484.248 274.098C463.136 286.523 442.499 302.782 422.383 320.98C410.445 331.791 398.96 345.861 386.206 351.275C378.325 354.628 370.13 354.418 361.098 348.713C352.885 343.522 346.294 335.307 338.762 328.317C312.756 304.019 273.516 300.345 246.394 325.846" stroke="#ECF0F1" stroke-width="0.552088" stroke-miterlimit="10"/>
<path d="M1508.14 14.2945C1456.78 80.6523 1397.51 140.286 1331.7 180.037C1306.18 195.589 1280.03 204.922 1253.4 214.289C1222.06 225.309 1190 226.941 1157.7 226.341C1135.61 225.943 1113.4 224.435 1091.2 223.964C1047.38 223.035 1003.4 226.474 961.493 233.46C936.992 237.546 913.248 243.084 890.443 249.83C874.252 254.622 857.673 260.212 840.858 265.377C817.078 272.675 792.71 278.783 767.393 283.238C758.394 284.822 749.309 286.223 740.183 287.109C701.986 290.639 661.544 268.148 625.473 255.685C615.905 252.378 606.647 249.752 597.765 248.42C561.906 243.037 524.916 250.189 490.061 268.542C484.068 271.682 478.12 275.168 472.212 278.942C451.136 292.416 430.514 309.609 410.233 328.33C398.191 339.457 386.527 353.596 373.555 359.224C365.533 362.71 357.202 362.659 348.049 357.326C339.654 352.435 332.798 344.636 325.036 337.941C298.264 314.667 258.721 310.782 230.934 335.924" stroke="#ECF0F1" stroke-width="0.552088" stroke-miterlimit="10"/>
<path d="M1505.45 16.1917C1455.48 83.3674 1396.86 143.583 1331.43 183.185C1305.43 199.071 1278.81 208.052 1251.76 218.019C1220.05 229.694 1187.55 232.046 1154.78 231.964C1132.38 231.917 1109.83 230.667 1087.28 230.26C1042.79 229.455 998.15 232.26 955.609 237.875C930.737 241.156 906.636 245.662 883.478 251.17C866.999 255.089 850.172 259.689 833.133 263.843C809.009 269.724 784.338 274.337 758.609 277.905C749.477 279.173 740.256 280.338 730.986 281.066C692.117 283.923 650.978 263.004 614.306 252.408C604.6 249.602 595.212 247.495 586.198 246.647C549.923 243.238 512.81 252.348 478.005 272.495C472.024 275.943 466.087 279.729 460.186 283.798C439.145 298.322 418.537 316.448 398.091 335.696C385.946 347.141 374.105 361.343 360.912 367.19C352.749 370.813 344.28 370.92 335.01 365.961C326.431 361.373 319.311 353.981 311.319 347.586C283.778 325.34 243.932 321.241 215.485 346.027" stroke="#ECF0F1" stroke-width="0.552088" stroke-miterlimit="10"/>
<path d="M1502.76 18.0936C1454.17 86.0831 1396.22 146.881 1331.16 186.333C1304.68 202.549 1277.58 211.183 1250.11 221.745C1218.03 234.076 1185.08 237.147 1151.85 237.58C1129.12 237.888 1106.24 236.886 1083.36 236.543C1038.21 235.862 992.893 238.038 949.722 242.274C924.482 244.754 900.025 248.228 876.511 252.498C859.743 255.543 842.666 259.154 825.403 262.298C800.935 266.756 775.96 269.879 749.818 272.56C740.557 273.511 731.195 274.44 721.781 275.01C682.238 277.194 640.4 257.843 603.131 249.123C593.289 246.819 583.765 245.225 574.619 244.865C537.935 243.426 500.692 254.498 465.934 276.436C459.962 280.188 454.037 284.278 448.147 288.643C427.142 304.216 406.551 323.28 385.938 343.051C373.693 354.812 361.669 369.083 348.259 375.144C339.954 378.904 331.346 379.17 321.955 374.583C313.192 370.3 305.809 363.318 297.587 357.215C269.281 335.996 229.128 331.679 200.019 356.11" stroke="#ECF0F1" stroke-width="0.552088" stroke-miterlimit="10"/>
<path d="M1500.07 19.9912C1452.87 88.7946 1395.57 150.18 1330.89 189.477C1303.94 206.027 1276.36 214.31 1248.47 225.472C1216.02 238.458 1182.63 242.249 1148.93 243.195C1125.88 243.855 1102.66 243.11 1079.43 242.831C1033.62 242.274 987.64 243.816 943.836 246.682C918.224 248.356 893.411 250.793 869.544 253.83C852.487 255.997 835.16 258.623 817.673 260.76C792.857 263.793 767.582 265.429 741.031 267.228C731.64 267.862 722.137 268.555 712.581 268.967C672.367 270.478 629.834 252.691 591.961 245.846C581.981 244.043 572.328 242.964 563.046 243.092C525.953 243.615 488.58 256.657 453.869 280.39C447.906 284.45 441.993 288.84 436.115 293.5C415.145 310.123 394.569 330.12 373.793 350.414C361.446 362.492 349.245 376.832 335.614 383.106C327.168 387.004 318.422 387.432 308.913 383.213C299.963 379.239 292.31 372.686 283.867 366.856C254.763 346.756 214.34 342.134 184.564 366.21" stroke="#ECF0F1" stroke-width="0.552088" stroke-miterlimit="10"/>
<path d="M1497.37 21.8884C1451.56 91.5098 1394.92 153.473 1330.62 192.62C1303.19 209.5 1275.13 217.432 1246.82 229.194C1214 242.831 1180.18 247.345 1146.01 248.806C1122.63 249.821 1099.08 249.328 1075.51 249.11C1029.03 248.677 982.386 249.585 937.952 251.08C911.972 251.954 886.797 253.35 862.579 255.153C845.234 256.443 827.656 258.079 809.949 259.209C784.788 260.816 759.209 260.97 732.247 261.878C722.723 262.199 713.085 262.653 703.381 262.906C662.492 263.745 619.265 247.517 580.791 242.553C570.676 241.246 560.89 240.681 551.472 241.306C513.97 243.782 476.465 258.803 441.804 284.325C435.853 288.69 429.951 293.388 424.082 298.34C403.147 316.012 382.586 336.943 361.646 357.763C349.195 370.158 336.815 384.562 322.965 391.055C314.381 395.09 305.491 395.686 295.867 391.826C286.729 388.164 278.817 382.014 270.144 376.476C240.275 357.403 199.545 352.568 169.11 376.287" stroke="#ECF0F1" stroke-width="0.552088" stroke-miterlimit="10"/>
<path d="M1494.68 23.7903C1450.26 94.2255 1394.27 156.776 1330.35 195.773C1302.44 212.987 1273.9 220.563 1245.18 232.929C1211.99 247.217 1177.72 252.451 1143.09 254.43C1119.39 255.796 1095.49 255.561 1071.59 255.406C1024.44 255.098 977.133 255.376 932.065 255.496C905.715 255.565 880.183 255.925 855.608 256.494C837.975 256.905 820.147 257.552 802.216 257.676C776.708 257.856 750.828 256.528 723.456 256.546C713.803 256.55 704.023 256.768 694.179 256.867C652.618 257.034 608.696 242.36 569.621 239.285C559.37 238.475 549.452 238.424 539.902 239.542C501.99 243.966 464.355 260.97 429.742 288.287C423.799 292.96 417.91 297.959 412.049 303.205C391.15 321.931 370.607 343.792 349.498 365.139C336.945 377.851 324.388 392.323 310.317 399.031C301.592 403.198 292.557 403.965 282.819 400.47C273.495 397.125 265.32 391.373 256.418 386.13C225.783 368.09 184.75 363.031 153.65 386.396" stroke="#ECF0F1" stroke-width="0.552088" stroke-miterlimit="10"/>
<path d="M1491.99 25.6873C1448.96 96.9364 1393.58 159.885 1330.08 198.916C1301.67 216.379 1272.68 223.681 1243.54 236.65C1209.97 251.585 1175.27 257.548 1140.17 260.045C1116.15 261.766 1091.91 261.783 1067.67 261.689C1019.86 261.505 971.885 261.15 926.184 259.895C899.466 259.162 873.575 258.473 848.647 257.817C830.725 257.346 812.646 257.004 794.494 256.13C768.639 254.883 742.462 252.074 714.675 251.2C704.892 250.892 694.971 250.87 684.982 250.81C642.747 250.305 598.133 237.181 558.455 235.995C548.068 235.682 538.017 236.145 528.332 237.755C490.011 244.124 452.246 263.116 417.683 292.223C411.749 297.2 405.871 302.503 400.023 308.045C379.159 327.82 358.63 350.615 337.357 372.484C324.7 385.513 311.964 400.054 297.675 406.976C288.808 411.28 279.632 412.218 269.779 409.083C260.267 406.055 251.833 400.701 242.704 395.754C211.303 378.746 169.964 373.469 138.204 396.478" stroke="#ECF0F1" stroke-width="0.552088" stroke-miterlimit="10"/>
<path d="M1489.29 27.5851C1447.65 99.6522 1392.93 163.179 1329.81 202.061C1300.92 219.852 1271.45 226.8 1241.89 240.373C1207.95 255.954 1172.81 262.645 1137.24 265.656C1112.9 267.729 1088.33 268.003 1063.74 267.973C1015.27 267.909 966.628 266.928 920.295 264.298C893.205 262.76 866.955 261.026 841.676 259.145C823.463 257.788 805.137 256.464 786.761 254.584C760.558 251.907 734.081 247.624 705.882 245.855C695.966 245.234 685.91 244.977 675.777 244.754C632.87 243.576 587.561 232.004 547.279 232.706C536.754 232.89 526.574 233.867 516.753 235.97C478.02 244.275 440.128 265.262 405.612 296.164C399.69 301.445 393.824 307.052 387.984 312.889C367.156 333.714 346.642 357.446 325.204 379.838C312.444 393.18 299.531 407.79 285.021 414.929C276.013 419.371 266.693 420.485 256.727 417.705C247.024 414.998 238.337 410.034 228.975 405.383C196.809 389.402 155.166 383.911 122.741 406.56" stroke="#ECF0F1" stroke-width="0.552088" stroke-miterlimit="10"/>
<path d="M1486.6 29.4864C1446.35 102.367 1392.28 166.481 1329.54 205.208C1300.18 223.33 1270.23 229.922 1240.25 244.103C1205.94 260.331 1170.35 267.75 1134.32 271.275C1109.66 273.703 1084.75 274.23 1059.83 274.26C1010.69 274.32 961.381 272.705 914.414 268.705C886.956 266.366 860.347 263.582 834.715 260.477C816.213 258.237 797.637 255.924 779.037 253.042C752.489 248.93 725.709 243.178 697.1 240.514C687.055 239.58 676.857 239.083 666.583 238.702C623.002 236.852 577.001 226.821 536.115 229.421C525.455 230.097 515.142 231.588 505.186 234.192C466.043 244.428 428.019 267.416 393.553 300.113C387.64 305.702 381.785 311.613 375.958 317.742C355.164 339.616 334.668 364.282 313.062 387.201C300.199 400.859 287.109 415.537 272.379 422.891C263.23 427.47 253.765 428.763 243.685 426.335C233.793 423.949 224.847 419.379 215.255 415.023C182.323 400.071 140.374 394.362 107.289 416.66" stroke="#ECF0F1" stroke-width="0.552088" stroke-miterlimit="10"/>
<path d="M1483.91 31.3841C1445.04 105.079 1391.69 169.959 1329.26 208.352C1299.45 226.894 1268.99 233.04 1238.6 247.825C1203.92 264.7 1167.9 272.847 1131.4 276.886C1106.41 279.665 1081.16 280.445 1055.9 280.544C1006.1 280.728 956.124 278.479 908.527 273.104C880.698 269.96 853.733 266.127 827.744 261.801C808.954 258.67 790.127 255.376 771.307 251.496C744.412 245.953 717.331 238.728 688.31 235.169C678.135 233.922 667.796 233.186 657.377 232.646C613.125 230.123 566.429 221.634 524.94 226.136C514.144 227.309 503.696 229.309 493.61 232.41C454.055 244.574 415.904 269.566 381.485 304.053C375.584 309.947 369.738 316.162 363.919 322.586C343.161 345.509 322.68 371.109 300.909 394.55C287.943 408.526 274.673 423.273 259.728 430.841C250.44 435.552 240.828 437.03 230.636 434.948C220.556 432.888 211.356 428.678 201.53 424.648C167.85 410.625 125.579 404.8 91.8288 426.738" stroke="#ECF0F1" stroke-width="0.552088" stroke-miterlimit="10"/>
<path d="M1481.21 33.2817C1443.74 107.794 1391.04 173.257 1328.99 211.501C1298.7 230.372 1267.77 236.163 1236.96 251.556C1201.9 269.074 1165.44 277.948 1128.48 282.51C1103.17 285.645 1077.58 286.677 1051.98 286.836C1001.52 287.144 950.871 284.266 902.64 277.516C874.444 273.571 847.119 268.684 820.777 263.137C801.697 259.12 782.624 254.837 763.577 249.958C736.337 242.981 708.953 234.287 679.522 229.832C669.218 228.273 658.741 227.297 648.178 226.599C603.251 223.403 555.86 216.448 513.773 222.855C502.839 224.521 492.261 227.031 482.039 230.633C442.069 244.72 403.795 271.721 369.423 308.003C363.53 314.205 357.7 320.719 351.89 327.435C331.167 351.407 310.703 377.941 288.764 401.909C275.695 416.202 262.249 431.013 247.083 438.799C237.654 443.648 227.898 445.31 217.594 443.575C207.325 441.845 197.866 438.015 187.81 434.281C153.364 421.286 110.788 415.247 76.3743 436.829" stroke="#ECF0F1" stroke-width="0.552088" stroke-miterlimit="10"/>
<path d="M1478.52 35.1837C1442.44 110.51 1390.4 176.555 1328.72 214.649C1297.96 233.854 1266.54 239.281 1235.32 255.282C1199.89 273.443 1162.99 283.05 1125.56 288.125C1099.92 291.611 1074 292.901 1048.06 293.123C996.934 293.556 945.623 290.044 896.762 281.923C868.195 277.173 840.516 271.233 813.818 264.47C794.45 259.561 775.126 254.297 755.858 248.417C728.271 240 700.587 229.845 670.744 224.496C660.307 222.624 649.691 221.408 638.984 220.551C593.383 216.683 545.297 211.261 502.609 219.574C491.539 221.729 480.826 224.753 470.472 228.856C430.086 244.857 391.689 273.875 357.367 311.948C351.483 318.454 345.664 325.272 339.866 332.284C319.178 357.305 298.729 384.777 276.628 409.263C263.456 423.873 249.831 438.752 234.447 446.753C224.876 451.739 214.978 453.589 204.557 452.197C194.1 450.801 184.382 447.353 174.095 443.913C138.881 431.942 96.0044 425.689 60.9286 446.92" stroke="#ECF0F1" stroke-width="0.552088" stroke-miterlimit="10"/>
<path d="M1475.82 37.0807C1441.13 113.221 1389.75 179.848 1328.45 217.792C1297.21 237.327 1265.31 242.394 1233.67 259.008C1197.86 277.811 1160.53 288.15 1122.63 293.74C1096.67 297.582 1070.42 299.124 1044.13 299.406C992.343 299.963 940.364 295.821 890.87 286.321C861.934 280.771 833.896 273.772 806.845 265.793C787.191 259.993 767.614 253.744 748.122 246.87C720.19 237.019 692.203 225.399 661.951 219.15C651.385 216.966 640.627 215.509 629.778 214.494C583.506 209.954 534.722 206.065 491.433 216.289C480.225 218.936 469.382 222.469 458.893 227.074C418.089 244.99 379.568 276.025 345.296 315.892C339.424 322.706 333.614 329.829 327.827 337.132C307.175 363.207 286.741 391.608 264.475 416.621C251.2 431.548 237.398 446.496 221.793 454.715C212.081 459.837 202.039 461.876 191.505 460.827C180.857 459.765 170.883 456.694 160.367 453.554C124.387 442.611 81.2038 436.144 45.4654 457.015" stroke="#ECF0F1" stroke-width="0.552088" stroke-miterlimit="10"/>
<path d="M1473.13 38.9778C1439.83 115.936 1389.1 183.146 1328.18 220.936C1296.46 240.805 1264.09 245.508 1232.03 262.73C1195.85 282.175 1158.07 293.247 1119.72 299.35C1093.43 303.544 1066.84 305.342 1040.22 305.689C987.761 306.37 935.116 301.595 884.992 290.724C855.685 284.368 827.294 276.316 799.886 267.12C779.944 260.43 760.119 253.196 740.401 245.324C712.125 234.033 683.834 220.953 653.169 213.805C642.471 211.312 631.578 209.611 620.582 208.438C573.635 203.225 524.153 200.865 480.266 212.999C468.923 216.135 457.945 220.182 447.326 225.292C406.101 245.122 367.462 278.175 333.237 319.832C327.374 326.951 321.578 334.377 315.798 341.976C295.178 369.1 274.764 398.435 252.331 423.975C238.955 439.219 224.97 454.231 209.148 462.668C199.294 467.928 189.108 470.16 178.463 469.444C167.626 468.72 157.392 466.026 146.647 463.178C109.898 453.263 66.4148 446.581 30.0138 467.097" stroke="#ECF0F1" stroke-width="0.552088" stroke-miterlimit="10"/>
<path d="M1470.44 40.8797C1438.52 118.652 1388.45 186.444 1327.91 224.088C1295.71 244.287 1262.85 248.626 1230.39 266.465C1193.83 286.548 1155.62 298.357 1116.79 304.979C1090.18 309.527 1063.25 311.579 1036.29 311.986C983.173 312.791 929.859 307.381 879.102 295.14C849.427 287.983 820.68 278.869 792.913 268.461C772.685 260.88 752.61 252.661 732.668 243.791C704.05 231.061 675.45 216.52 644.376 208.472C633.548 205.667 622.513 203.727 611.376 202.395C563.758 196.51 513.575 195.674 469.091 209.723C457.609 213.351 446.495 217.908 435.747 223.519C394.101 245.255 355.344 280.334 321.166 323.786C315.312 331.212 309.528 338.939 303.759 346.833C283.175 375.007 262.776 405.275 240.177 431.338C226.699 446.898 212.537 461.979 196.494 470.631C186.502 476.023 176.172 478.452 165.408 478.075C154.386 477.689 143.89 475.368 132.918 472.82C95.4008 463.932 51.6142 457.036 14.5505 477.193" stroke="#ECF0F1" stroke-width="0.552088" stroke-miterlimit="10"/>
<path d="M1467.74 42.7768C1437.22 121.363 1387.8 189.742 1327.64 227.232C1294.97 247.765 1261.63 251.74 1228.74 270.187C1191.8 290.908 1153.16 303.453 1113.87 310.589C1086.94 315.489 1059.67 317.793 1032.37 318.269C978.585 319.198 924.609 313.159 873.219 299.539C843.172 291.576 814.072 281.404 785.948 269.784C765.435 261.308 745.107 252.108 724.94 242.244C695.978 228.076 667.075 212.078 635.591 203.127C624.631 200.013 613.458 197.833 602.176 196.342C553.884 189.785 503.003 190.47 457.924 206.437C446.304 210.553 435.057 215.62 424.176 221.737C382.106 245.379 343.235 282.484 309.107 327.73C303.264 335.461 297.49 343.492 291.733 351.681C271.184 380.904 250.799 412.107 228.036 438.696C214.454 454.573 200.113 469.723 183.852 478.588C173.719 484.118 163.247 486.744 152.369 486.701C141.158 486.658 130.403 484.709 119.201 482.452C80.9181 474.592 36.8252 467.478 -0.898071 487.283" stroke="#ECF0F1" stroke-width="0.552088" stroke-miterlimit="10"/>
<path d="M1465.05 44.6745C1435.92 124.079 1387.16 193.036 1327.37 230.376C1294.22 251.239 1260.37 254.755 1227.1 273.909C1189.76 295.166 1150.71 308.546 1110.95 316.2C1083.69 321.456 1056.09 324.013 1028.45 324.548C974.002 325.602 919.358 318.929 867.335 303.938C836.921 295.175 807.466 283.94 778.984 271.108C758.185 261.737 737.606 251.556 717.216 240.694C687.912 225.086 658.688 207.723 626.807 197.777C615.711 194.381 604.406 191.931 592.98 190.282C544.016 183.052 492.432 185.262 446.757 203.148C434.999 207.753 423.62 213.334 412.606 219.951C370.112 245.499 331.123 284.63 297.045 331.666C291.211 339.701 285.451 348.041 279.7 356.521C259.186 386.794 238.82 418.934 215.889 446.046C202.204 462.24 187.686 477.454 171.204 486.538C160.929 492.205 150.316 495.027 139.323 495.319C127.924 495.618 116.91 494.042 105.478 492.081C66.4266 485.249 22.0333 477.921 -16.3555 497.37" stroke="#ECF0F1" stroke-width="0.552088" stroke-miterlimit="10"/>
<path d="M1462.36 46.5764C1434.61 126.794 1386.51 196.334 1327.1 233.524C1293.47 254.721 1259.14 257.882 1225.46 277.64C1187.74 299.543 1148.25 313.652 1108.03 321.82C1080.45 327.426 1052.51 330.24 1024.53 330.84C969.414 332.018 914.104 324.715 861.451 308.35C830.666 298.781 800.861 286.489 772.019 272.444C750.934 262.178 730.12 250.961 709.489 239.156C679.864 222.033 650.31 203.277 618.023 192.441C606.797 188.732 595.35 186.042 583.78 184.234C534.142 176.332 481.857 180.063 435.587 199.868C423.69 204.96 412.176 211.051 401.036 218.178C358.115 245.628 319.013 286.788 284.983 335.62C279.158 343.963 273.41 352.602 267.67 361.378C247.192 392.7 226.84 425.774 203.744 453.409C189.956 469.92 175.262 485.202 158.559 494.501C148.143 500.304 137.388 503.324 126.277 503.945C114.692 504.592 103.417 503.379 91.7551 501.718C51.9381 495.914 7.23851 488.367 -31.8129 507.461" stroke="#ECF0F1" stroke-width="0.552088" stroke-miterlimit="10"/>
<path d="M1459.67 48.4735C1433.31 129.505 1385.87 199.632 1326.83 236.672C1292.73 258.199 1257.92 261.004 1223.82 281.366C1185.73 303.921 1145.8 318.753 1105.11 327.439C1077.21 333.401 1048.93 336.468 1020.61 337.127C964.829 338.429 908.854 330.493 855.567 312.756C824.414 302.387 794.256 289.028 765.052 273.776C743.685 262.614 722.617 250.421 701.759 237.618C671.789 219.06 641.932 198.835 609.232 187.104C597.874 183.082 586.289 180.152 574.578 178.186C524.268 169.612 471.276 174.859 424.415 196.587C412.379 202.167 400.73 208.768 389.46 216.4C346.109 245.752 306.899 288.943 272.915 339.564C267.102 348.212 261.363 357.155 255.635 366.226C235.192 398.598 214.855 432.606 191.597 460.767C177.706 477.595 162.832 492.946 145.911 502.458C135.353 508.399 124.458 511.62 113.232 512.571C101.461 513.569 89.9236 512.721 78.0323 511.35C37.4467 506.574 -7.55324 498.813 -47.2672 517.552" stroke="#ECF0F1" stroke-width="0.552088" stroke-miterlimit="10"/>
<path d="M1456.97 50.3706C1432 132.22 1385.22 202.925 1326.55 239.815C1291.98 261.676 1256.69 264.122 1222.17 285.092C1183.71 308.293 1143.34 323.854 1102.18 333.054C1073.96 339.371 1045.34 342.691 1016.68 343.415C960.244 344.841 903.6 336.27 849.683 317.159C818.159 305.985 787.651 291.568 758.087 275.104C736.434 263.047 715.117 249.881 694.034 236.072C663.723 216.083 633.557 194.385 600.451 181.763C588.963 177.428 577.237 174.259 565.381 172.134C514.397 162.887 460.701 169.654 413.251 193.301C401.074 199.37 389.292 206.48 377.892 214.618C334.112 245.867 294.792 291.092 260.856 343.509C255.052 352.465 249.327 361.708 243.608 371.075C223.2 404.5 202.881 439.437 179.455 468.125C165.461 485.27 150.41 500.685 133.268 510.416C122.573 516.489 111.536 519.92 100.192 521.197C88.236 522.542 76.4361 522.058 64.3152 520.987C22.9609 517.239 -22.3423 509.264 -62.7189 527.643" stroke="#ECF0F1" stroke-width="0.552088" stroke-miterlimit="10"/>
<path d="M1454.28 52.2725C1430.7 134.936 1384.57 206.228 1326.28 242.964C1291.23 265.154 1255.46 267.244 1220.53 288.818C1181.69 312.666 1140.88 328.955 1099.26 338.669C1070.71 345.338 1041.76 348.914 1012.76 349.702C955.653 351.248 898.344 342.053 843.794 321.567C811.901 309.591 781.06 294.039 751.117 276.44C729.196 263.437 707.61 249.345 686.301 234.535C655.646 213.115 625.175 189.939 591.657 176.426C580.037 171.779 568.175 168.37 556.175 166.087C504.52 156.167 450.085 164.326 402.075 190.025C389.751 196.548 377.842 204.202 366.313 212.845C322.1 245.996 282.671 293.251 248.788 347.458C242.993 356.718 237.28 366.269 231.57 375.927C211.197 410.402 190.893 446.273 167.302 475.483C153.205 492.941 137.974 508.429 120.614 518.374C109.777 524.585 98.6018 528.217 87.1376 529.823C74.999 531.523 62.934 531.399 50.5834 530.624C8.46352 527.904 -37.1431 519.71 -78.1822 537.738" stroke="#ECF0F1" stroke-width="0.552088" stroke-miterlimit="10"/>
<path d="M1451.59 54.1702C1429.39 137.647 1383.92 209.522 1326.01 246.108C1290.48 268.632 1254.23 270.367 1218.88 292.545C1179.67 317.04 1138.43 334.052 1096.34 344.285C1067.47 351.309 1038.18 355.138 1008.84 355.986C951.068 357.656 893.09 347.827 837.907 325.97C805.646 313.189 774.452 296.592 744.15 277.768C721.943 263.878 700.107 248.802 678.574 232.993C647.577 210.143 616.797 185.494 582.87 171.085C571.12 166.121 559.117 162.476 546.976 160.035C494.646 149.443 439.51 159.144 390.906 186.74C378.443 193.76 366.387 201.885 354.743 211.064C310.046 245.984 270.562 295.402 236.726 351.403C230.942 360.971 225.238 370.822 219.54 380.772C199.203 416.296 178.916 453.105 155.157 482.838C140.957 500.613 125.55 516.169 107.969 526.328C96.991 532.676 85.677 536.513 74.095 538.441C61.7738 540.492 49.4438 540.728 36.8664 540.248C-6.02207 538.556 -51.9319 530.149 -93.6337 547.821" stroke="#ECF0F1" stroke-width="0.552088" stroke-miterlimit="10"/>
<path d="M1448.89 56.0679C1428.09 140.363 1383.27 212.816 1325.74 249.252C1289.74 272.106 1253 273.485 1217.24 296.267C1177.65 321.413 1135.97 339.149 1093.42 349.896C1064.22 357.271 1034.59 361.353 1004.91 362.269C946.48 364.064 887.837 353.6 832.023 330.369C799.392 316.787 767.844 299.141 737.185 279.092C714.692 264.32 692.603 248.258 670.847 231.443C639.505 207.162 608.422 181.039 574.086 165.736C562.203 160.459 550.062 156.575 537.776 153.975C484.775 142.71 428.935 153.958 379.736 183.447C367.135 190.959 354.943 199.598 343.17 209.278C298.052 246.138 258.45 297.544 224.661 355.339C218.886 365.212 213.197 375.367 207.507 385.612C187.206 422.185 166.934 459.928 143.01 490.188C128.707 508.28 113.12 523.9 95.3213 534.278C84.2016 540.762 72.7521 544.806 61.0494 547.059C48.5456 549.466 35.9506 550.061 23.1435 549.877C-20.5106 549.209 -66.7238 540.591 -109.088 557.903" stroke="#ECF0F1" stroke-width="0.552088" stroke-miterlimit="10"/>
<path d="M1446.2 57.9692C1426.79 143.078 1382.63 216.118 1325.47 252.404C1288.99 275.592 1251.78 276.612 1215.59 299.997C1175.63 325.79 1133.51 344.254 1090.49 355.519C1060.98 363.25 1031.01 367.584 1000.99 368.561C941.895 370.48 882.586 359.387 826.136 334.78C793.137 320.393 761.232 301.702 730.214 280.428C707.436 264.769 685.097 247.722 663.114 229.905C631.43 204.193 600.038 176.593 565.292 160.399C553.28 154.81 541 150.689 528.57 147.927C474.895 135.99 418.354 148.783 368.56 180.17C355.821 188.179 343.497 197.332 331.591 207.504C286.049 246.305 246.332 299.702 212.59 359.292C206.824 369.469 201.147 379.928 195.469 390.469C175.203 428.091 154.945 466.768 130.856 497.55C116.45 515.959 100.687 531.648 82.6673 542.24C71.4062 548.861 59.8242 553.144 47.9949 555.689C35.3115 558.485 22.4485 559.402 9.41171 559.518C-35.011 559.877 -81.5275 551.046 -124.554 568.002" stroke="#ECF0F1" stroke-width="0.552088" stroke-miterlimit="10"/>
<path d="M1443.51 59.8668C1425.48 145.79 1381.98 219.411 1325.2 255.548C1288.24 279.066 1250.55 279.73 1213.95 303.724C1173.62 330.163 1131.06 349.356 1087.57 361.134C998.995 385.128 906.33 378.361 820.253 339.183C762.352 312.83 707.81 272.783 655.39 228.359C623.362 201.217 591.666 172.143 556.511 155.054C491.881 123.638 419.444 135.904 357.396 176.88C295.349 217.857 243.049 285.774 200.534 363.233C161.951 433.523 127.296 516.255 70.0281 550.194C4.53221 589.007 -71.574 552.082 -140 578.085" stroke="#ECF0F1" stroke-width="0.552088" stroke-miterlimit="10"/>
</svg>
