<svg width="1440" height="603" viewBox="0 0 1440 603" fill="none" xmlns="http://www.w3.org/2000/svg">
<path d="M1527 0.999969C1465.91 61.6526 1402.04 117.208 1333.6 158.013C1311.41 171.244 1288.61 182.962 1264.9 188.205C1216.56 198.895 1167.53 182.2 1118.65 179.96C1056.58 177.112 994.151 198.523 939.206 240.523C897.864 272.127 851.35 317.969 804.583 329.474C762.098 339.924 716.395 283.062 678.772 260.876C640.235 238.154 597.135 233.314 556.437 245.003C535.117 251.127 514.379 261.784 495.259 276.834C476.974 291.23 461.046 318.021 439.369 296.965C432.204 290.005 427.251 279.28 421.093 270.513C399.693 240.047 362.27 237.666 339.124 265.3" stroke="#ECF0F1" stroke-width="0.552088" stroke-miterlimit="10"/>
<path d="M1524.31 2.90182C1464.61 64.3683 1401.39 120.507 1333.33 161.162C1310.67 174.722 1287.38 186.085 1263.26 191.935C1234.15 198.938 1204.74 196.343 1175.23 192.651C1155.09 190.132 1134.9 187.1 1114.73 186.252C1074.9 184.581 1034.92 191.811 996.801 207.038C974.515 215.942 952.87 227.588 932.242 241.859C917.75 251.834 902.682 263.39 887.227 274.642C865.491 290.421 842.984 305.583 820.114 315.292C811.904 318.792 803.65 321.589 795.387 323.426C761.227 330.99 725.041 298.957 692.492 275.391C683.766 269.044 675.303 263.304 667.201 259.098C633.904 241.653 597.591 237.276 562.445 244.874C556.393 246.181 550.374 247.842 544.405 249.856C523.12 257.03 502.4 268.62 483.111 284.193C471.688 293.419 461.093 307.15 449.437 311.489C442.26 314.162 434.716 313.224 426.323 305.591C418.99 298.922 413.757 288.617 407.37 280.15C385.201 250.712 347.478 248.117 323.666 275.396" stroke="#ECF0F1" stroke-width="0.552088" stroke-miterlimit="10"/>
<path d="M1521.61 4.79895C1463.3 67.0835 1400.75 123.8 1333.06 164.305C1309.92 178.199 1286.15 189.207 1261.61 195.657C1232.13 203.307 1202.28 201.439 1172.3 198.261C1151.84 196.094 1131.31 193.314 1110.81 192.535C1070.3 190.984 1029.66 197.585 990.911 211.44C968.257 219.54 946.259 230.14 925.271 243.187C910.494 252.279 895.175 262.85 879.494 273.095C857.417 287.444 834.6 301.132 811.321 309.951C802.978 313.138 794.589 315.695 786.178 317.374C751.347 324.265 714.457 293.778 681.316 272.11C672.452 266.259 663.847 261.068 655.622 257.325C621.871 241.966 585.473 239.435 550.374 248.823C544.334 250.433 538.327 252.404 532.366 254.708C511.113 262.932 490.411 275.455 470.958 291.555C459.432 301.098 448.657 314.898 436.783 319.451C429.465 322.256 421.794 321.46 413.272 314.221C405.765 307.844 400.258 297.963 393.641 289.791C370.707 261.381 332.677 258.571 308.206 285.49" stroke="#ECF0F1" stroke-width="0.552088" stroke-miterlimit="10"/>
<path d="M1518.92 6.69662C1462 69.7949 1400.1 127.098 1332.79 167.449C1309.17 181.673 1284.93 192.325 1259.97 199.384C1230.11 207.684 1199.82 206.541 1169.39 203.877C1148.6 202.065 1127.73 199.538 1106.89 198.818C1065.72 197.392 1024.41 203.358 985.031 215.839C962.005 223.138 939.678 232.775 918.307 244.51C903.259 252.777 887.672 262.302 871.77 271.545C849.348 284.463 826.228 296.678 802.54 304.602C794.068 307.476 785.536 309.793 776.985 311.318C741.479 317.537 703.853 288.724 670.152 268.821C661.141 263.497 652.41 258.803 644.055 255.539C609.874 242.185 573.364 241.581 538.318 252.764C532.287 254.683 526.291 256.953 520.343 259.552C499.125 268.825 478.441 282.283 458.822 298.91C447.193 308.769 436.241 322.638 424.147 327.405C416.688 330.347 408.89 329.696 400.235 322.839C392.555 316.757 386.774 307.292 379.927 299.415C356.224 272.033 317.895 269.005 292.757 295.573" stroke="#ECF0F1" stroke-width="0.552088" stroke-miterlimit="10"/>
<path d="M1516.22 8.59851C1460.69 72.5106 1399.45 130.396 1332.52 170.602C1308.42 185.16 1283.71 195.525 1258.33 203.114C1228.11 212.147 1197.37 211.646 1166.46 209.501C1145.35 208.04 1124.15 205.77 1102.97 205.115C1061.14 203.813 1019.16 209.149 979.147 220.255C955.753 226.749 933.072 235.366 911.342 245.851C896.009 253.252 880.171 261.771 864.042 270.016C841.279 281.503 817.85 292.245 793.752 299.274C785.148 301.835 776.478 303.912 767.785 305.279C731.608 310.825 693.272 283.598 658.982 265.549C649.83 260.73 640.969 256.554 632.485 253.77C597.88 242.42 561.255 243.744 526.256 256.717C520.234 258.94 514.25 261.514 508.313 264.41C487.131 274.732 466.461 289.123 446.678 306.272C434.946 316.449 423.817 330.382 411.502 335.367C403.901 338.447 395.974 337.942 387.192 331.47C379.335 325.683 373.284 316.638 366.207 309.056C341.736 282.703 303.103 279.46 277.306 305.669" stroke="#ECF0F1" stroke-width="0.552088" stroke-miterlimit="10"/>
<path d="M1513.53 10.4956C1459.39 75.2257 1398.81 133.694 1332.25 173.745C1307.68 188.633 1282.49 198.66 1256.69 206.836C1226.09 216.533 1194.91 216.743 1163.54 215.111C1142.11 214.006 1120.57 211.989 1099.05 211.393C1056.55 210.216 1013.91 214.918 973.263 224.654C949.498 230.346 926.467 237.936 904.378 247.174C888.761 253.706 872.682 261.283 856.315 268.465C833.225 278.603 809.466 287.705 784.968 293.924C776.228 296.143 767.425 298.01 758.585 299.218C721.734 304.092 682.694 278.445 647.812 262.259C638.522 257.946 629.525 254.288 620.911 251.984C585.886 242.626 549.143 245.889 514.191 260.657C508.18 263.189 502.208 266.063 496.277 269.253C475.131 280.629 454.476 295.954 434.527 313.626C422.692 324.12 411.384 338.121 398.851 343.321C391.109 346.537 383.052 346.178 374.144 340.091C366.11 334.6 359.788 325.974 352.481 318.689C327.244 293.363 288.308 289.906 261.845 315.759" stroke="#ECF0F1" stroke-width="0.552088" stroke-miterlimit="10"/>
<path d="M1510.84 12.3975C1458.09 77.9414 1398.16 136.992 1331.98 176.893C1306.93 192.115 1281.26 201.795 1255.04 210.567C1224.08 220.928 1192.46 221.844 1160.62 220.731C1138.86 219.977 1116.99 218.217 1095.13 217.685C1051.97 216.632 1008.66 220.705 967.38 229.061C943.247 233.948 919.859 240.514 897.413 248.506C881.511 254.169 865.182 260.752 848.591 266.924C825.156 275.644 801.091 283.246 776.184 288.583C767.314 290.485 758.37 292.121 749.389 293.166C711.866 297.368 672.122 273.301 636.646 258.974C627.216 255.167 618.09 252.023 609.341 250.207C573.897 242.84 537.034 248.044 502.129 264.602C496.127 267.438 490.167 270.616 484.248 274.098C463.136 286.523 442.499 302.782 422.383 320.98C410.445 331.791 398.96 345.861 386.206 351.275C378.325 354.628 370.13 354.418 361.098 348.713C352.885 343.522 346.294 335.307 338.762 328.317C312.756 304.019 273.516 300.345 246.394 325.846" stroke="#ECF0F1" stroke-width="0.552088" stroke-miterlimit="10"/>
<path d="M1508.14 14.2945C1456.78 80.6523 1397.51 140.286 1331.7 180.037C1306.18 195.589 1280.03 204.922 1253.4 214.289C1222.06 225.309 1190 226.941 1157.7 226.341C1135.61 225.943 1113.4 224.435 1091.2 223.964C1047.38 223.035 1003.4 226.474 961.493 233.46C936.992 237.546 913.248 243.084 890.443 249.83C874.252 254.622 857.673 260.212 840.858 265.377C817.078 272.675 792.71 278.783 767.393 283.238C758.394 284.822 749.309 286.223 740.183 287.109C701.986 290.639 661.544 268.148 625.473 255.685C615.905 252.378 606.647 249.752 597.765 248.42C561.906 243.037 524.916 250.189 490.061 268.542C484.068 271.682 478.12 275.168 472.212 278.942C451.136 292.416 430.514 309.609 410.233 328.33C398.191 339.457 386.527 353.596 373.555 359.224C365.533 362.71 357.202 362.659 348.049 357.326C339.654 352.435 332.798 344.636 325.036 337.941C298.264 314.667 258.721 310.782 230.934 335.924" stroke="#ECF0F1" stroke-width="0.552088" stroke-miterlimit="10"/>
<path d="M1505.45 16.1917C1455.48 83.3674 1396.86 143.583 1331.43 183.185C1305.43 199.071 1278.81 208.052 1251.76 218.019C1220.05 229.694 1187.55 232.046 1154.78 231.964C1132.38 231.917 1109.83 230.667 1087.28 230.26C1042.79 229.455 998.15 232.26 955.609 237.875C930.737 241.156 906.636 245.662 883.478 251.17C866.999 255.089 850.172 259.689 833.133 263.843C809.009 269.724 784.338 274.337 758.609 277.905C749.477 279.173 740.256 280.338 730.986 281.066C692.117 283.923 650.978 263.004 614.306 252.408C604.6 249.602 595.212 247.495 586.198 246.647C549.923 243.238 512.81 252.348 478.005 272.495C472.024 275.943 466.087 279.729 460.186 283.798C439.145 298.322 418.537 316.448 398.091 335.696C385.946 347.141 374.105 361.343 360.912 367.19C352.749 370.813 344.28 370.92 335.01 365.961C326.431 361.373 319.311 353.981 311.319 347.586C283.778 325.34 243.932 321.241 215.485 346.027" stroke="#ECF0F1" stroke-width="0.552088" stroke-miterlimit="10"/>
<path d="M1502.76 18.0936C1454.17 86.0831 1396.22 146.881 1331.16 186.333C1304.68 202.549 1277.58 211.183 1250.11 221.745C1218.03 234.076 1185.08 237.147 1151.85 237.58C1129.12 237.888 1106.24 236.886 1083.36 236.543C1038.21 235.862 992.893 238.038 949.722 242.274C924.482 244.754 900.025 248.228 876.511 252.498C859.743 255.543 842.666 259.154 825.403 262.298C800.935 266.756 775.96 269.879 749.818 272.56C740.557 273.511 731.195 274.44 721.781 275.01C682.238 277.194 640.4 257.843 603.131 249.123C593.289 246.819 583.765 245.225 574.619 244.865C537.935 243.426 500.692 254.498 465.934 276.436C459.962 280.188 454.037 284.278 448.147 288.643C427.142 304.216 406.551 323.28 385.938 343.051C373.693 354.812 361.669 369.083 348.259 375.144C339.954 378.904 331.346 379.17 321.955 374.583C313.192 370.3 305.809 363.318 297.587 357.215C269.281 335.996 229.128 331.679 200.019 356.11" stroke="#ECF0F1" stroke-width="0.552088" stroke-miterlimit="10"/>
<path d="M1500.07 19.9912C1452.87 88.7946 1395.57 150.18 1330.89 189.477C1303.94 206.027 1276.36 214.31 1248.47 225.472C1216.02 238.458 1182.63 242.249 1148.93 243.195C1125.88 243.855 1102.66 243.11 1079.43 242.831C1033.62 242.274 987.64 243.816 943.836 246.682C918.224 248.356 893.411 250.793 869.544 253.83C852.487 255.997 835.16 258.623 817.673 260.76C792.857 263.793 767.582 265.429 741.031 267.228C731.64 267.862 722.137 268.555 712.581 268.967C672.367 270.478 629.834 252.691 591.961 245.846C581.981 244.043 572.328 242.964 563.046 243.092C525.953 243.615 488.58 256.657 453.869 280.39C447.906 284.45 441.993 288.84 436.115 293.5C415.145 310.123 394.569 330.12 373.793 350.414C361.446 362.492 349.245 376.832 335.614 383.106C327.168 387.004 318.422 387.432 308.913 383.213C299.963 379.239 292.31 372.686 283.867 366.856C254.763 346.756 214.34 342.134 184.564 366.21" stroke="#ECF0F1" stroke-width="0.552088" stroke-miterlimit="10"/>
<path d="M1497.37 21.8884C1451.56 91.5098 1394.92 153.473 1330.62 192.62C1303.19 209.5 1275.13 217.432 1246.82 229.194C1214 242.831 1180.18 247.345 1146.01 248.806C1122.63 249.821 1099.08 249.328 1075.51 249.11C1029.03 248.677 982.386 249.585 937.952 251.08C911.972 251.954 886.797 253.35 862.579 255.153C845.234 256.443 827.656 258.079 809.949 259.209C784.788 260.816 759.209 260.97 732.247 261.878C722.723 262.199 713.085 262.653 703.381 262.906C662.492 263.745 619.265 247.517 580.791 242.553C570.676 241.246 560.89 240.681 551.472 241.306C513.97 243.782 476.465 258.803 441.804 284.325C435.853 288.69 429.951 293.388 424.082 298.34C403.147 316.012 382.586 336.943 361.646 357.763C349.195 370.158 336.815 384.562 322.965 391.055C314.381 395.09 305.491 395.686 295.867 391.826C286.729 388.164 278.817 382.014 270.144 376.476C240.275 357.403 199.545 352.568 169.11 376.287" stroke="#ECF0F1" stroke-width="0.552088" stroke-miterlimit="10"/>
<path d="M1494.68 23.7903C1450.26 94.2255 1394.27 156.776 1330.35 195.773C1302.44 212.987 1273.9 220.563 1245.18 232.929C1211.99 247.217 1177.72 252.451 1143.09 254.43C1119.39 255.796 1095.49 255.561 1071.59 255.406C1024.44 255.098 977.133 255.376 932.065 255.496C905.715 255.565 880.183 255.925 855.608 256.494C837.975 256.905 820.147 257.552 802.216 257.676C776.708 257.856 750.828 256.528 723.456 256.546C713.803 256.55 704.023 256.768 694.179 256.867C652.618 257.034 608.696 242.36 569.621 239.285C559.37 238.475 549.452 238.424 539.902 239.542C501.99 243.966 464.355 260.97 429.742 288.287C423.799 292.96 417.91 297.959 412.049 303.205C391.15 321.931 370.607 343.792 349.498 365.139C336.945 377.851 324.388 392.323 310.317 399.031C301.592 403.198 292.557 403.965 282.819 400.47C273.495 397.125 265.32 391.373 256.418 386.13C225.783 368.09 184.75 363.031 153.65 386.396" stroke="#ECF0F1" stroke-width="0.552088" stroke-miterlimit="10"/>
<path d="M1491.99 25.6873C1448.96 96.9364 1393.58 159.885 1330.08 198.916C1301.67 216.379 1272.68 223.681 1243.54 236.65C1209.97 251.585 1175.27 257.548 1140.17 260.045C1116.15 261.766 1091.91 261.783 1067.67 261.689C1019.86 261.505 971.885 261.15 926.184 259.895C899.466 259.162 873.575 258.473 848.647 257.817C830.725 257.346 812.646 257.004 794.494 256.13C768.639 254.883 742.462 252.074 714.675 251.2C704.892 250.892 694.971 250.87 684.982 250.81C642.747 250.305 598.133 237.181 558.455 235.995C548.068 235.682 538.017 236.145 528.332 237.755C490.011 244.124 452.246 263.116 417.683 292.223C411.749 297.2 405.871 302.503 400.023 308.045C379.159 327.82 358.63 350.615 337.357 372.484C324.7 385.513 311.964 400.054 297.675 406.976C288.808 411.28 279.632 412.218 269.779 409.083C260.267 406.055 251.833 400.701 242.704 395.754C211.303 378.746 169.964 373.469 138.204 396.478" stroke="#ECF0F1" stroke-width="0.552088" stroke-miterlimit="10"/>
<path d="M1489.29 27.5851C1447.65 99.6522 1392.93 163.179 1329.81 202.061C1300.92 219.852 1271.45 226.8 1241.89 240.373C1207.95 255.954 1172.81 262.645 1137.24 265.656C1112.9 267.729 1088.33 268.003 1063.74 267.973C1015.27 267.909 966.628 266.928 920.295 264.298C893.205 262.76 866.955 261.026 841.676 259.145C823.463 257.788 805.137 256.464 786.761 254.584C760.558 251.907 734.081 247.624 705.882 245.855C695.966 245.234 685.91 244.977 675.777 244.754C632.87 243.576 587.561 232.004 547.279 232.706C536.754 232.89 526.574 233.867 516.753 235.97C478.02 244.275 440.128 265.262 405.612 296.164C399.69 301.445 393.824 307.052 387.984 312.889C367.156 333.714 346.642 357.446 325.204 379.838C312.444 393.18 299.531 407.79 285.021 414.929C276.013 419.371 266.693 420.485 256.727 417.705C247.024 414.998 238.337 410.034 228.975 405.383C196.809 389.402 155.166 383.911 122.741 406.56" stroke="#ECF0F1" stroke-width="0.552088" stroke-miterlimit="10"/>
<path d="M1486.6 29.4864C1446.35 102.367 1392.28 166.481 1329.54 205.208C1300.18 223.33 1270.23 229.922 1240.25 244.103C1205.94 260.331 1170.35 267.75 1134.32 271.275C1109.66 273.703 1084.75 274.23 1059.83 274.26C1010.69 274.32 961.381 272.705 914.414 268.705C886.956 266.366 860.347 263.582 834.715 260.477C816.213 258.237 797.637 255.924 779.037 253.042C752.489 248.93 725.709 243.178 697.1 240.514C687.055 239.58 676.857 239.083 666.583 238.702C623.002 236.852 577.001 226.821 536.115 229.421C525.455 230.097 515.142 231.588 505.186 234.192C466.043 244.428 428.019 267.416 393.553 300.113C387.64 305.702 381.785 311.613 375.958 317.742C355.164 339.616 334.668 364.282 313.062 387.201C300.199 400.859 287.109 415.537 272.379 422.891C263.23 427.47 253.765 428.763 243.685 426.335C233.793 423.949 224.847 419.379 215.255 415.023C182.323 400.071 140.374 394.362 107.289 416.66" stroke="#ECF0F1" stroke-width="0.552088" stroke-miterlimit="10"/>
<path d="M1483.91 31.3841C1445.04 105.079 1391.69 169.959 1329.26 208.352C1299.45 226.894 1268.99 233.04 1238.6 247.825C1203.92 264.7 1167.9 272.847 1131.4 276.886C1106.41 279.665 1081.16 280.445 1055.9 280.544C1006.1 280.728 956.124 278.479 908.527 273.104C880.698 269.96 853.733 266.127 827.744 261.801C808.954 258.67 790.127 255.376 771.307 251.496C744.412 245.953 717.331 238.728 688.31 235.169C678.135 233.922 667.796 233.186 657.377 232.646C613.125 230.123 566.429 221.634 524.94 226.136C514.144 227.309 503.696 229.309 493.61 232.41C454.055 244.574 415.904 269.566 381.485 304.053C375.584 309.947 369.738 316.162 363.919 322.586C343.161 345.509 322.68 371.109 300.909 394.55C287.943 408.526 274.673 423.273 259.728 430.841C250.44 435.552 240.828 437.03 230.636 434.948C220.556 432.888 211.356 428.678 201.53 424.648C167.85 410.625 125.579 404.8 91.8288 426.738" stroke="#ECF0F1" stroke-width="0.552088" stroke-miterlimit="10"/>
<path d="M1481.21 33.2817C1443.74 107.794 1391.04 173.257 1328.99 211.501C1298.7 230.372 1267.77 236.163 1236.96 251.556C1201.9 269.074 1165.44 277.948 1128.48 282.51C1103.17 285.645 1077.58 286.677 1051.98 286.836C1001.52 287.144 950.871 284.266 902.64 277.516C874.444 273.571 847.119 268.684 820.777 263.137C801.697 259.12 782.624 254.837 763.577 249.958C736.337 242.981 708.953 234.287 679.522 229.832C669.218 228.273 658.741 227.297 648.178 226.599C603.251 223.403 555.86 216.448 513.773 222.855C502.839 224.521 492.261 227.031 482.039 230.633C442.069 244.72 403.795 271.721 369.423 308.003C363.53 314.205 357.7 320.719 351.89 327.435C331.167 351.407 310.703 377.941 288.764 401.909C275.695 416.202 262.249 431.013 247.083 438.799C237.654 443.648 227.898 445.31 217.594 443.575C207.325 441.845 197.866 438.015 187.81 434.281C153.364 421.286 110.788 415.247 76.3743 436.829" stroke="#ECF0F1" stroke-width="0.552088" stroke-miterlimit="10"/>
<path d="M1478.52 35.1837C1442.44 110.51 1390.4 176.555 1328.72 214.649C1297.96 233.854 1266.54 239.281 1235.32 255.282C1199.89 273.443 1162.99 283.05 1125.56 288.125C1099.92 291.611 1074 292.901 1048.06 293.123C996.934 293.556 945.623 290.044 896.762 281.923C868.195 277.173 840.516 271.233 813.818 264.47C794.45 259.561 775.126 254.297 755.858 248.417C728.271 240 700.587 229.845 670.744 224.496C660.307 222.624 649.691 221.408 638.984 220.551C593.383 216.683 545.297 211.261 502.609 219.574C491.539 221.729 480.826 224.753 470.472 228.856C430.086 244.857 391.689 273.875 357.367 311.948C351.483 318.454 345.664 325.272 339.866 332.284C319.178 357.305 298.729 384.777 276.628 409.263C263.456 423.873 249.831 438.752 234.447 446.753C224.876 451.739 214.978 453.589 204.557 452.197C194.1 450.801 184.382 447.353 174.095 443.913C138.881 431.942 96.0044 425.689 60.9286 446.92" stroke="#ECF0F1" stroke-width="0.552088" stroke-miterlimit="10"/>
<path d="M1475.82 37.0807C1441.13 113.221 1389.75 179.848 1328.45 217.792C1297.21 237.327 1265.31 242.394 1233.67 259.008C1197.86 277.811 1160.53 288.15 1122.63 293.74C1096.67 297.582 1070.42 299.124 1044.13 299.406C992.343 299.963 940.364 295.821 890.87 286.321C861.934 280.771 833.896 273.772 806.845 265.793C787.191 259.993 767.614 253.744 748.122 246.87C720.19 237.019 692.203 225.399 661.951 219.15C651.385 216.966 640.627 215.509 629.778 214.494C583.506 209.954 534.722 206.065 491.433 216.289C480.225 218.936 469.382 222.469 458.893 227.074C418.089 244.99 379.568 276.025 345.296 315.892C339.424 322.706 333.614 329.829 327.827 337.132C307.175 363.207 286.741 391.608 264.475 416.621C251.2 431.548 237.398 446.496 221.793 454.715C212.081 459.837 202.039 461.876 191.505 460.827C180.857 459.765 170.883 456.694 160.367 453.554C124.387 442.611 81.2038 436.144 45.4654 457.015" stroke="#ECF0F1" stroke-width="0.552088" stroke-miterlimit="10"/>
<path d="M1473.13 38.9778C1439.83 115.936 1389.1 183.146 1328.18 220.936C1296.46 240.805 1264.09 245.508 1232.03 262.73C1195.85 282.175 1158.07 293.247 1119.72 299.35C1093.43 303.544 1066.84 305.342 1040.22 305.689C987.761 306.37 935.116 301.595 884.992 290.724C855.685 284.368 827.294 276.316 799.886 267.12C779.944 260.43 760.119 253.196 740.401 245.324C712.125 234.033 683.834 220.953 653.169 213.805C642.471 211.312 631.578 209.611 620.582 208.438C573.635 203.225 524.153 200.865 480.266 212.999C468.923 216.135 457.945 220.182 447.326 225.292C406.101 245.122 367.462 278.175 333.237 319.832C327.374 326.951 321.578 334.377 315.798 341.976C295.178 369.1 274.764 398.435 252.331 423.975C238.955 439.219 224.97 454.231 209.148 462.668C199.294 467.928 189.108 470.16 178.463 469.444C167.626 468.72 157.392 466.026 146.647 463.178C109.898 453.263 66.4148 446.581 30.0138 467.097" stroke="#ECF0F1" stroke-width="0.552088" stroke-miterlimit="10"/>
<path d="M1470.44 40.8797C1438.52 118.652 1388.45 186.444 1327.91 224.088C1295.71 244.287 1262.85 248.626 1230.39 266.465C1193.83 286.548 1155.62 298.357 1116.79 304.979C1090.18 309.527 1063.25 311.579 1036.29 311.986C983.173 312.791 929.859 307.381 879.102 295.14C849.427 287.983 820.68 278.869 792.913 268.461C772.685 260.88 752.61 252.661 732.668 243.791C704.05 231.061 675.45 216.52 644.376 208.472C633.548 205.667 622.513 203.727 611.376 202.395C563.758 196.51 513.575 195.674 469.091 209.723C457.609 213.351 446.495 217.908 435.747 223.519C394.101 245.255 355.344 280.334 321.166 323.786C315.312 331.212 309.528 338.939 303.759 346.833C283.175 375.007 262.776 405.275 240.177 431.338C226.699 446.898 212.537 461.979 196.494 470.631C186.502 476.023 176.172 478.452 165.408 478.075C154.386 477.689 143.89 475.368 132.918 472.82C95.4008 463.932 51.6142 457.036 14.5505 477.193" stroke="#ECF0F1" stroke-width="0.552088" stroke-miterlimit="10"/>
<path d="M1467.74 42.7768C1437.22 121.363 1387.8 189.742 1327.64 227.232C1294.97 247.765 1261.63 251.74 1228.74 270.187C1191.8 290.908 1153.16 303.453 1113.87 310.589C1086.94 315.489 1059.67 317.793 1032.37 318.269C978.585 319.198 924.609 313.159 873.219 299.539C843.172 291.576 814.072 281.404 785.948 269.784C765.435 261.308 745.107 252.108 724.94 242.244C695.978 228.076 667.075 212.078 635.591 203.127C624.631 200.013 613.458 197.833 602.176 196.342C553.884 189.785 503.003 190.47 457.924 206.437C446.304 210.553 435.057 215.62 424.176 221.737C382.106 245.379 343.235 282.484 309.107 327.73C303.264 335.461 297.49 343.492 291.733 351.681C271.184 380.904 250.799 412.107 228.036 438.696C214.454 454.573 200.113 469.723 183.852 478.588C173.719 484.118 163.247 486.744 152.369 486.701C141.158 486.658 130.403 484.709 119.201 482.452C80.9181 474.592 36.8252 467.478 -0.898071 487.283" stroke="#ECF0F1" stroke-width="0.552088" stroke-miterlimit="10"/>
<path d="M1465.05 44.6745C1435.92 124.079 1387.16 193.036 1327.37 230.376C1294.22 251.239 1260.37 254.755 1227.1 273.909C1189.76 295.166 1150.71 308.546 1110.95 316.2C1083.69 321.456 1056.09 324.013 1028.45 324.548C974.002 325.602 919.358 318.929 867.335 303.938C836.921 295.175 807.466 283.94 778.984 271.108C758.185 261.737 737.606 251.556 717.216 240.694C687.912 225.086 658.688 207.723 626.807 197.777C615.711 194.381 604.406 191.931 592.98 190.282C544.016 183.052 492.432 185.262 446.757 203.148C434.999 207.753 423.62 213.334 412.606 219.951C370.112 245.499 331.123 284.63 297.045 331.666C291.211 339.701 285.451 348.041 279.7 356.521C259.186 386.794 238.82 418.934 215.889 446.046C202.204 462.24 187.686 477.454 171.204 486.538C160.929 492.205 150.316 495.027 139.323 495.319C127.924 495.618 116.91 494.042 105.478 492.081C66.4266 485.249 22.0333 477.921 -16.3555 497.37" stroke="#ECF0F1" stroke-width="0.552088" stroke-miterlimit="10"/>
<path d="M1462.36 46.5764C1434.61 126.794 1386.51 196.334 1327.1 233.524C1293.47 254.721 1259.14 257.882 1225.46 277.64C1187.74 299.543 1148.25 313.652 1108.03 321.82C1080.45 327.426 1052.51 330.24 1024.53 330.84C969.414 332.018 914.104 324.715 861.451 308.35C830.666 298.781 800.861 286.489 772.019 272.444C750.934 262.178 730.12 250.961 709.489 239.156C679.864 222.033 650.31 203.277 618.023 192.441C606.797 188.732 595.35 186.042 583.78 184.234C534.142 176.332 481.857 180.063 435.587 199.868C423.69 204.96 412.176 211.051 401.036 218.178C358.115 245.628 319.013 286.788 284.983 335.62C279.158 343.963 273.41 352.602 267.67 361.378C247.192 392.7 226.84 425.774 203.744 453.409C189.956 469.92 175.262 485.202 158.559 494.501C148.143 500.304 137.388 503.324 126.277 503.945C114.692 504.592 103.417 503.379 91.7551 501.718C51.9381 495.914 7.23851 488.367 -31.8129 507.461" stroke="#ECF0F1" stroke-width="0.552088" stroke-miterlimit="10"/>
<path d="M1459.67 48.4735C1433.31 129.505 1385.87 199.632 1326.83 236.672C1292.73 258.199 1257.92 261.004 1223.82 281.366C1185.73 303.921 1145.8 318.753 1105.11 327.439C1077.21 333.401 1048.93 336.468 1020.61 337.127C964.829 338.429 908.854 330.493 855.567 312.756C824.414 302.387 794.256 289.028 765.052 273.776C743.685 262.614 722.617 250.421 701.759 237.618C671.789 219.06 641.932 198.835 609.232 187.104C597.874 183.082 586.289 180.152 574.578 178.186C524.268 169.612 471.276 174.859 424.415 196.587C412.379 202.167 400.73 208.768 389.46 216.4C346.109 245.752 306.899 288.943 272.915 339.564C267.102 348.212 261.363 357.155 255.635 366.226C235.192 398.598 214.855 432.606 191.597 460.767C177.706 477.595 162.832 492.946 145.911 502.458C135.353 508.399 124.458 511.62 113.232 512.571C101.461 513.569 89.9236 512.721 78.0323 511.35C37.4467 506.574 -7.55324 498.813 -47.2672 517.552" stroke="#ECF0F1" stroke-width="0.552088" stroke-miterlimit="10"/>
<path d="M1456.97 50.3706C1432 132.22 1385.22 202.925 1326.55 239.815C1291.98 261.676 1256.69 264.122 1222.17 285.092C1183.71 308.293 1143.34 323.854 1102.18 333.054C1073.96 339.371 1045.34 342.691 1016.68 343.415C960.244 344.841 903.6 336.27 849.683 317.159C818.159 305.985 787.651 291.568 758.087 275.104C736.434 263.047 715.117 249.881 694.034 236.072C663.723 216.083 633.557 194.385 600.451 181.763C588.963 177.428 577.237 174.259 565.381 172.134C514.397 162.887 460.701 169.654 413.251 193.301C401.074 199.37 389.292 206.48 377.892 214.618C334.112 245.867 294.792 291.092 260.856 343.509C255.052 352.465 249.327 361.708 243.608 371.075C223.2 404.5 202.881 439.437 179.455 468.125C165.461 485.27 150.41 500.685 133.268 510.416C122.573 516.489 111.536 519.92 100.192 521.197C88.236 522.542 76.4361 522.058 64.3152 520.987C22.9609 517.239 -22.3423 509.264 -62.7189 527.643" stroke="#ECF0F1" stroke-width="0.552088" stroke-miterlimit="10"/>
<path d="M1454.28 52.2725C1430.7 134.936 1384.57 206.228 1326.28 242.964C1291.23 265.154 1255.46 267.244 1220.53 288.818C1181.69 312.666 1140.88 328.955 1099.26 338.669C1070.71 345.338 1041.76 348.914 1012.76 349.702C955.653 351.248 898.344 342.053 843.794 321.567C811.901 309.591 781.06 294.039 751.117 276.44C729.196 263.437 707.61 249.345 686.301 234.535C655.646 213.115 625.175 189.939 591.657 176.426C580.037 171.779 568.175 168.37 556.175 166.087C504.52 156.167 450.085 164.326 402.075 190.025C389.751 196.548 377.842 204.202 366.313 212.845C322.1 245.996 282.671 293.251 248.788 347.458C242.993 356.718 237.28 366.269 231.57 375.927C211.197 410.402 190.893 446.273 167.302 475.483C153.205 492.941 137.974 508.429 120.614 518.374C109.777 524.585 98.6018 528.217 87.1376 529.823C74.999 531.523 62.934 531.399 50.5834 530.624C8.46352 527.904 -37.1431 519.71 -78.1822 537.738" stroke="#ECF0F1" stroke-width="0.552088" stroke-miterlimit="10"/>
<path d="M1451.59 54.1702C1429.39 137.647 1383.92 209.522 1326.01 246.108C1290.48 268.632 1254.23 270.367 1218.88 292.545C1179.67 317.04 1138.43 334.052 1096.34 344.285C1067.47 351.309 1038.18 355.138 1008.84 355.986C951.068 357.656 893.09 347.827 837.907 325.97C805.646 313.189 774.452 296.592 744.15 277.768C721.943 263.878 700.107 248.802 678.574 232.993C647.577 210.143 616.797 185.494 582.87 171.085C571.12 166.121 559.117 162.476 546.976 160.035C494.646 149.443 439.51 159.144 390.906 186.74C378.443 193.76 366.387 201.885 354.743 211.064C310.046 245.984 270.562 295.402 236.726 351.403C230.942 360.971 225.238 370.822 219.54 380.772C199.203 416.296 178.916 453.105 155.157 482.838C140.957 500.613 125.55 516.169 107.969 526.328C96.991 532.676 85.677 536.513 74.095 538.441C61.7738 540.492 49.4438 540.728 36.8664 540.248C-6.02207 538.556 -51.9319 530.149 -93.6337 547.821" stroke="#ECF0F1" stroke-width="0.552088" stroke-miterlimit="10"/>
<path d="M1448.89 56.0679C1428.09 140.363 1383.27 212.816 1325.74 249.252C1289.74 272.106 1253 273.485 1217.24 296.267C1177.65 321.413 1135.97 339.149 1093.42 349.896C1064.22 357.271 1034.59 361.353 1004.91 362.269C946.48 364.064 887.837 353.6 832.023 330.369C799.392 316.787 767.844 299.141 737.185 279.092C714.692 264.32 692.603 248.258 670.847 231.443C639.505 207.162 608.422 181.039 574.086 165.736C562.203 160.459 550.062 156.575 537.776 153.975C484.775 142.71 428.935 153.958 379.736 183.447C367.135 190.959 354.943 199.598 343.17 209.278C298.052 246.138 258.45 297.544 224.661 355.339C218.886 365.212 213.197 375.367 207.507 385.612C187.206 422.185 166.934 459.928 143.01 490.188C128.707 508.28 113.12 523.9 95.3213 534.278C84.2016 540.762 72.7521 544.806 61.0494 547.059C48.5456 549.466 35.9506 550.061 23.1435 549.877C-20.5106 549.209 -66.7238 540.591 -109.088 557.903" stroke="#ECF0F1" stroke-width="0.552088" stroke-miterlimit="10"/>
<path d="M1446.2 57.9692C1426.79 143.078 1382.63 216.118 1325.47 252.404C1288.99 275.592 1251.78 276.612 1215.59 299.997C1175.63 325.79 1133.51 344.254 1090.49 355.519C1060.98 363.25 1031.01 367.584 1000.99 368.561C941.895 370.48 882.586 359.387 826.136 334.78C793.137 320.393 761.232 301.702 730.214 280.428C707.436 264.769 685.097 247.722 663.114 229.905C631.43 204.193 600.038 176.593 565.292 160.399C553.28 154.81 541 150.689 528.57 147.927C474.895 135.99 418.354 148.783 368.56 180.17C355.821 188.179 343.497 197.332 331.591 207.504C286.049 246.305 246.332 299.702 212.59 359.292C206.824 369.469 201.147 379.928 195.469 390.469C175.203 428.091 154.945 466.768 130.856 497.55C116.45 515.959 100.687 531.648 82.6673 542.24C71.4062 548.861 59.8242 553.144 47.9949 555.689C35.3115 558.485 22.4485 559.402 9.41171 559.518C-35.011 559.877 -81.5275 551.046 -124.554 568.002" stroke="#ECF0F1" stroke-width="0.552088" stroke-miterlimit="10"/>
<path d="M1443.51 59.8668C1425.48 145.79 1381.98 219.411 1325.2 255.548C1288.24 279.066 1250.55 279.73 1213.95 303.724C1173.62 330.163 1131.06 349.356 1087.57 361.134C998.995 385.128 906.33 378.361 820.253 339.183C762.352 312.83 707.81 272.783 655.39 228.359C623.362 201.217 591.666 172.143 556.511 155.054C491.881 123.638 419.444 135.904 357.396 176.88C295.349 217.857 243.049 285.774 200.534 363.233C161.951 433.523 127.296 516.255 70.0281 550.194C4.53221 589.007 -71.574 552.082 -140 578.085" stroke="#ECF0F1" stroke-width="0.552088" stroke-miterlimit="10"/>
<path d="M1306.78 603C1307.5 494.403 1281.1 385.844 1233.59 302.062C1220.08 278.227 1204.22 255.689 1184.23 245.234C1126.47 215.03 1064.8 281.058 1016.23 318.548C957.629 363.786 899.687 411.195 838.667 449.37C804.41 470.803 764.174 488.993 731.036 464.117C697.48 438.924 684.711 380.263 670.838 329.178C654.674 269.652 632.414 212.31 599.738 169.445C567.062 126.58 522.89 99.5198 479.147 106.497C444.893 111.962 413.681 137.241 385.178 165.411C310.288 239.431 246.665 337.423 200.14 450.407" stroke="#EAF5FA" stroke-width="0.552088" stroke-miterlimit="10"/>
<path d="M1308.65 598.305C1309.29 502.325 1286.08 408.389 1244.92 327.824C1241.1 320.342 1237.16 312.984 1233.06 305.826C1219.56 282.317 1203.84 260.066 1184.14 249.53C1127.14 219.021 1066.41 281.597 1017.91 317.742C974.918 349.788 932.227 383.624 888.019 414.253C872.683 424.922 857.213 435.197 841.547 444.889C807.564 465.911 767.805 483.857 734.915 460.142C701.612 436.126 688.428 379.735 674.172 330.651C657.557 273.459 635.041 218.345 602.427 177.133C591.071 162.785 578.365 150.278 564.792 140.354C539.396 121.774 510.966 112.223 482.717 116.566C448.783 121.783 417.798 146.038 389.477 172.923C332.142 227.313 281.476 294.828 239.706 372.6C227.241 395.805 215.57 419.919 204.76 444.877" stroke="#EAF5FA" stroke-width="0.552088" stroke-miterlimit="10"/>
<path d="M1310.52 593.615C1311.14 500.835 1286.69 412.102 1244.36 331.251C1240.52 323.914 1236.61 316.65 1232.52 309.6C1219.04 286.42 1203.46 264.452 1184.03 253.83C1127.8 223.013 1068.02 282.141 1019.59 316.945C977.044 347.518 934.727 380.459 890.543 410.441C875.318 420.857 859.964 430.914 844.424 440.418C810.715 461.032 771.431 478.73 738.79 456.175C705.74 433.334 692.141 379.213 677.505 332.133C660.443 277.275 637.665 224.388 605.115 184.834C593.781 171.064 581.136 159.058 567.654 149.537C542.438 131.702 514.27 122.511 486.289 126.648C452.676 131.621 421.921 154.848 393.78 180.444C336.786 232.213 286.453 296.018 244.562 370.214C232.062 392.353 220.315 415.409 209.383 439.356" stroke="#EAF5FA" stroke-width="0.552088" stroke-miterlimit="10"/>
<path d="M1312.4 588.921C1312.99 499.341 1287.32 415.812 1243.81 334.673C1239.95 327.474 1236.06 320.308 1231.98 313.369C1218.53 290.515 1203.08 268.838 1183.94 258.131C1128.47 227.01 1069.65 282.69 1021.27 316.145C979.185 345.248 937.189 377.14 893.076 406.629C877.945 416.746 862.723 426.631 847.307 435.947C813.871 456.15 775.062 473.604 742.674 452.21C709.878 430.542 695.863 378.695 680.845 333.616C663.332 281.092 640.297 230.432 607.813 192.531C596.496 179.339 583.916 167.835 570.525 158.712C545.486 141.622 517.586 132.791 489.867 136.727C456.575 141.455 426.049 163.654 398.088 187.961C341.432 237.113 291.435 297.205 249.424 367.829C236.888 388.902 225.068 410.899 214.016 433.84" stroke="#EAF5FA" stroke-width="0.552088" stroke-miterlimit="10"/>
<path d="M1314.27 584.231C1314.84 497.85 1287.96 419.516 1243.25 338.099C1239.37 331.041 1235.5 323.969 1231.44 317.142C1218 294.617 1202.69 273.224 1183.84 262.43C1129.14 231.005 1071.27 283.246 1022.94 315.348C981.323 342.991 939.671 373.927 895.596 402.817C880.572 412.668 865.474 422.347 850.181 431.475C817.019 451.271 778.686 468.48 746.547 448.243C714.003 427.753 699.574 378.176 684.172 335.097C666.209 284.908 642.918 236.47 610.496 200.227C599.199 187.609 586.684 176.61 573.382 167.885C548.522 151.546 520.887 143.074 493.43 146.8C460.457 151.28 430.16 172.456 402.382 195.473C346.068 242.004 296.403 298.387 254.268 365.434C241.694 385.44 229.8 406.38 218.627 428.309" stroke="#EAF5FA" stroke-width="0.552088" stroke-miterlimit="10"/>
<path d="M1316.14 579.537C1316.69 496.356 1288.62 423.213 1242.69 341.522C1238.8 334.601 1234.95 327.632 1230.91 320.912C1217.49 298.713 1202.31 277.606 1183.74 266.731C1129.8 235.002 1072.91 283.808 1024.62 314.552C983.47 340.747 942.163 370.72 898.123 399.01C883.205 408.595 868.227 418.069 853.061 427.008C820.173 446.393 782.315 463.359 750.425 444.282C718.135 424.965 703.293 377.663 687.506 336.584C669.095 288.725 645.545 242.519 613.184 207.933C601.909 195.893 589.455 185.396 576.244 177.069C551.564 161.475 524.192 153.362 497.002 156.887C464.35 161.123 434.283 181.275 406.684 203.003C350.712 246.918 301.38 299.587 259.125 363.062C246.515 382.002 234.544 401.884 223.251 422.802" stroke="#EAF5FA" stroke-width="0.552088" stroke-miterlimit="10"/>
<path d="M1318.01 574.842C1318.54 494.86 1289.29 426.896 1242.14 344.94C1238.23 338.155 1234.4 331.285 1230.37 324.676C1216.97 302.807 1201.93 281.983 1183.64 271.022C1130.47 238.989 1074.56 284.364 1026.3 313.742C985.629 338.498 944.654 367.499 900.65 395.184C885.837 404.504 870.98 413.773 855.941 422.519C823.327 441.497 785.946 458.214 754.303 440.298C722.267 422.155 707.01 377.127 690.839 338.048C671.978 292.523 648.172 248.545 615.873 215.612C604.618 204.151 592.229 194.154 579.107 186.23C554.603 171.381 527.499 163.628 500.571 166.948C468.24 170.94 438.4 190.064 410.984 210.502C355.353 251.796 306.354 300.755 263.978 360.654C251.33 378.528 239.285 397.352 227.874 417.259" stroke="#EAF5FA" stroke-width="0.552088" stroke-miterlimit="10"/>
<path d="M1319.88 570.153C1320.39 493.37 1289.97 430.58 1241.58 348.366C1237.66 341.715 1233.85 334.948 1229.83 328.45C1216.45 306.906 1201.55 286.369 1183.54 275.327C1131.13 242.986 1076.21 284.947 1027.97 312.95C987.79 336.275 947.149 364.3 903.173 391.381C888.467 400.44 873.731 409.495 858.818 418.056C826.478 436.624 789.571 453.096 758.179 436.341C726.395 419.376 710.723 376.613 694.173 339.539C674.864 296.348 650.799 254.597 618.564 223.322C607.33 212.434 595.003 202.943 581.972 195.418C557.648 181.314 530.809 173.925 504.143 177.039C472.133 180.782 442.523 198.883 415.283 218.032C359.994 256.709 311.327 301.955 268.828 358.282C256.144 375.089 244.023 392.855 232.491 411.752" stroke="#EAF5FA" stroke-width="0.552088" stroke-miterlimit="10"/>
<path d="M1321.75 565.458C1322.24 491.875 1290.68 434.246 1241.02 351.788C1237.1 345.269 1233.3 338.609 1229.3 332.219C1215.93 311.005 1201.17 290.754 1183.44 279.627C1131.8 246.981 1077.88 285.529 1029.65 312.148C989.963 334.056 949.643 361.091 905.703 387.565C891.105 396.358 876.487 405.207 861.698 413.58C829.632 431.74 793.202 447.965 762.057 432.374C730.527 416.583 714.439 376.095 697.506 341.02C677.747 300.164 653.422 260.64 621.253 231.018C610.039 220.709 597.777 211.719 584.834 204.592C560.69 191.237 534.116 184.204 507.712 187.117C476.023 190.616 446.642 207.688 419.582 225.553C364.635 261.608 316.301 303.145 273.681 355.896C260.959 371.636 248.765 388.34 237.112 406.235" stroke="#EAF5FA" stroke-width="0.552088" stroke-miterlimit="10"/>
<path d="M1323.62 560.764C1324.09 490.38 1291.39 437.899 1240.47 355.21C1236.53 348.824 1232.74 342.267 1228.76 335.988C1215.42 315.099 1200.78 295.136 1183.34 283.923C1132.46 250.973 1079.55 286.12 1031.33 311.347C992.143 331.85 952.14 357.891 908.23 383.753C893.738 392.289 879.241 400.924 864.578 409.109C832.786 426.858 796.83 442.838 765.936 428.408C734.658 413.79 718.156 375.576 700.84 342.502C680.63 303.98 656.049 266.683 623.942 238.719C612.748 228.988 600.548 220.499 587.697 213.77C563.729 201.161 537.42 194.492 511.284 197.195C479.916 200.446 450.762 216.494 423.885 233.07C369.279 266.508 321.278 304.332 278.537 353.51C265.78 368.184 253.509 383.83 241.738 400.714" stroke="#EAF5FA" stroke-width="0.552088" stroke-miterlimit="10"/>
<path d="M1325.49 556.075C1325.94 488.89 1292.12 441.549 1239.91 358.633C1235.97 352.376 1232.19 345.925 1228.22 339.753C1214.9 319.195 1200.4 299.514 1183.24 288.219C1133.13 254.966 1081.22 286.72 1033 310.543C994.322 329.654 954.634 354.688 910.75 379.933C896.368 388.208 881.988 396.633 867.453 404.629C835.934 421.971 800.455 437.703 769.808 424.434C738.784 410.989 721.866 375.05 704.168 343.976C683.51 307.789 658.67 272.719 626.624 246.408C615.452 237.251 603.313 229.263 590.553 222.937C566.765 211.073 540.721 204.764 514.848 207.265C483.797 210.272 454.876 225.292 428.178 240.579C373.914 271.395 326.246 305.506 283.381 351.112C270.589 364.719 258.241 379.308 246.35 395.181" stroke="#EAF5FA" stroke-width="0.552088" stroke-miterlimit="10"/>
<path d="M1327.36 551.38C1327.79 487.395 1292.86 445.177 1239.36 362.055C1235.41 355.926 1231.64 349.587 1227.68 343.522C1214.38 323.289 1200.02 303.895 1183.14 292.515C1133.79 258.957 1082.91 287.337 1034.68 309.741C996.516 327.473 957.134 351.489 913.28 376.12C899.006 384.138 884.745 392.349 870.336 400.157C839.091 417.088 804.086 432.58 773.692 420.467C742.922 408.201 725.591 374.527 707.507 345.462C686.399 311.605 661.303 278.766 629.322 254.108C618.17 245.529 606.096 238.043 593.424 232.119C569.816 221 544.037 215.051 518.426 217.347C487.696 220.109 459.002 234.102 432.487 248.104C378.564 276.303 331.229 306.7 288.243 348.73C275.412 361.271 262.991 374.801 250.982 389.664" stroke="#EAF5FA" stroke-width="0.552088" stroke-miterlimit="10"/>
<path d="M1329.23 546.69C1329.64 485.905 1293.62 448.792 1238.8 365.482C1234.85 359.481 1231.09 353.236 1227.15 347.296C1213.89 327.354 1199.64 308.286 1183.04 296.82C1134.46 262.953 1084.6 287.971 1036.36 308.949C998.712 325.319 959.635 348.307 915.807 372.313C901.642 380.074 887.501 388.066 873.213 395.686C842.242 412.21 807.714 427.454 777.568 416.502C747.05 405.409 729.305 374.009 710.841 346.945C689.282 315.421 663.93 284.81 632.011 261.81C620.879 253.809 608.867 246.823 596.287 241.298C572.855 230.929 547.341 225.339 521.998 227.43C491.589 229.944 463.125 242.913 436.789 255.625C383.208 281.204 336.205 307.891 293.099 346.349C280.233 357.824 267.735 370.296 255.605 384.152" stroke="#EAF5FA" stroke-width="0.552088" stroke-miterlimit="10"/>
<path d="M1331.11 541.996C1331.49 484.41 1294.39 452.385 1238.24 368.904C1234.29 363.027 1230.54 356.898 1226.61 351.065C1213.37 331.448 1199.25 312.667 1182.94 301.115C1135.12 266.945 1086.3 288.617 1038.03 308.144C1000.92 323.165 962.132 345.111 918.333 368.497C904.281 376.001 890.255 383.779 876.093 391.21C845.396 407.323 811.342 422.322 781.446 412.531C751.182 402.612 733.021 373.487 714.174 348.422C692.168 319.233 666.556 290.849 634.699 269.502C623.585 262.075 611.641 255.595 599.146 250.468C575.894 240.844 550.645 235.614 525.564 237.499C495.477 239.769 467.242 251.71 441.086 263.133C387.846 286.095 341.176 309.069 297.946 343.951C285.042 354.358 272.47 365.773 260.22 378.618" stroke="#EAF5FA" stroke-width="0.552088" stroke-miterlimit="10"/>
<path d="M1332.98 537.301C1333.34 482.915 1295.18 455.961 1237.69 372.325C1233.73 366.573 1229.99 360.556 1226.07 354.833C1212.85 335.542 1198.87 317.048 1182.84 305.415C1135.79 270.941 1088 289.281 1039.71 307.347C1003.12 321.036 964.635 341.928 920.857 364.684C906.913 371.931 893.005 379.495 878.97 386.738C848.547 402.444 814.97 417.195 785.321 408.565C755.311 399.823 736.735 372.968 717.505 349.904C695.048 323.049 669.177 296.892 637.385 277.203C626.292 270.354 614.409 264.375 602.006 259.646C578.933 250.767 553.949 245.898 529.13 247.581C499.364 249.607 471.355 260.52 445.379 270.658C392.481 290.998 346.144 310.264 302.793 341.573C289.854 350.914 277.206 361.271 264.837 373.105" stroke="#EAF5FA" stroke-width="0.552088" stroke-miterlimit="10"/>
<path d="M1334.85 532.611C1335.19 481.424 1295.98 459.52 1237.13 375.748C1233.18 370.12 1229.44 364.213 1225.54 358.603C1212.34 339.637 1198.49 321.43 1182.74 309.711C1136.46 274.933 1089.72 289.962 1041.39 306.542C1005.34 318.911 967.138 338.742 923.384 360.868C909.549 367.863 895.758 375.208 881.85 382.262C851.701 397.557 818.598 412.064 789.2 404.594C759.442 397.026 740.451 372.441 720.838 351.381C697.933 326.861 671.804 302.931 640.076 284.895C629.004 278.625 617.186 273.147 604.871 268.821C581.975 260.687 557.256 256.181 532.705 257.659C503.26 259.436 475.481 269.326 449.684 278.175C397.128 295.898 351.124 311.45 307.652 339.183C294.674 347.454 281.953 356.752 269.464 367.58" stroke="#EAF5FA" stroke-width="0.552088" stroke-miterlimit="10"/>
<path d="M1336.72 527.917C1337.04 479.93 1296.8 463.054 1236.57 379.17C1232.62 373.662 1228.89 367.871 1225 362.372C1211.82 343.736 1198.09 325.859 1182.64 314.012C1137.07 279.062 1091.43 290.669 1043.06 305.745C1007.55 316.817 969.638 335.568 925.907 357.057C912.184 363.798 898.509 370.925 884.727 377.791C854.852 392.679 822.226 406.937 793.075 400.628C763.568 394.234 744.164 371.923 724.172 352.863C700.816 330.677 674.431 308.975 642.765 292.596C631.713 286.9 619.957 281.927 607.733 277.999C585.017 270.615 560.563 266.465 536.274 267.737C507.147 269.271 479.598 278.132 453.984 285.692C401.769 300.794 356.098 312.637 312.502 336.798C299.489 344.002 286.691 352.242 274.081 362.063" stroke="#EAF5FA" stroke-width="0.552088" stroke-miterlimit="10"/>
<path d="M1338.59 523.227C1338.89 478.439 1297.63 466.571 1236.02 382.597C1232.06 377.209 1228.34 371.538 1224.46 366.146C1211.31 347.835 1197.71 330.245 1182.55 318.316C1137.74 283.058 1093.16 291.397 1044.75 304.953C1009.78 314.744 972.15 332.403 928.44 353.253C914.829 359.747 901.268 366.651 887.61 373.328C858.008 387.805 825.857 401.819 796.956 396.675C767.702 391.459 747.887 371.418 727.508 354.359C703.702 334.506 677.061 315.031 645.457 300.306C634.425 295.188 622.731 290.716 610.599 287.187C588.062 280.548 563.873 276.762 539.846 277.828C511.04 279.113 483.721 286.956 458.286 293.226C406.413 305.711 361.072 313.841 317.358 334.425C304.307 340.563 291.438 347.745 278.708 356.556" stroke="#EAF5FA" stroke-width="0.552088" stroke-miterlimit="10"/>
<path d="M1340.46 518.533C1340.74 476.94 1298.48 470.062 1235.46 386.019C1231.51 380.751 1227.78 375.196 1223.92 369.915C1210.78 351.935 1197.32 334.627 1182.44 322.613C1138.4 287.05 1094.88 292.147 1046.42 304.148C1011.99 312.676 974.647 329.23 930.961 349.433C917.462 355.678 904.016 362.355 890.484 368.848C861.157 382.918 829.482 396.688 800.829 392.701C771.828 388.658 751.597 370.891 730.836 355.832C706.582 338.31 679.681 321.062 648.139 307.994C637.129 303.454 625.5 299.484 613.455 296.353C591.095 290.46 567.171 287.033 543.41 287.894C514.924 288.935 487.835 295.749 462.58 300.73C411.048 310.594 366.04 315.01 322.206 332.027C309.119 337.098 296.173 343.223 283.322 351.022" stroke="#EAF5FA" stroke-width="0.552088" stroke-miterlimit="10"/>
<path d="M1342.34 513.839C1342.59 475.445 1299.34 473.522 1234.91 389.437C1230.96 384.284 1227.23 378.853 1223.39 373.679C1210.27 356.025 1196.94 339.004 1182.35 326.908C1139.07 291.037 1096.61 292.918 1048.1 303.347C1014.22 310.628 977.159 326.069 933.49 345.621C920.103 351.617 906.772 358.072 893.367 364.372C864.313 378.031 833.113 391.557 804.71 388.73C775.963 385.86 755.316 370.364 734.173 357.309C709.468 342.122 682.311 327.101 650.834 315.691C639.844 311.725 628.276 308.26 616.323 305.531C594.143 300.383 570.484 297.316 546.987 297.976C518.823 298.773 491.96 304.559 466.888 308.251C415.698 315.498 371.022 316.2 327.065 329.641C313.943 333.645 300.92 338.712 287.948 345.501" stroke="#EAF5FA" stroke-width="0.552088" stroke-miterlimit="10"/>
<path d="M1344.21 509.149C1344.44 473.955 1300.21 476.961 1234.35 392.863C1230.4 387.826 1226.68 382.515 1222.85 377.453C1209.75 360.128 1196.56 343.389 1182.25 331.208C1139.73 295.029 1098.34 293.723 1049.77 302.546C1016.45 308.598 979.665 322.908 936.014 341.805C922.739 347.553 909.525 353.784 896.244 359.896C867.464 373.148 836.738 386.426 808.588 384.76C780.094 383.068 759.033 369.842 737.506 358.787C712.351 345.934 684.935 333.14 653.522 323.383C642.553 319.995 631.05 317.031 619.186 314.701C597.185 310.303 573.791 307.596 550.557 308.045C522.713 308.594 496.08 313.356 471.188 315.763C420.339 320.389 375.996 317.383 331.918 327.246C318.757 330.185 305.662 334.194 292.572 339.971" stroke="#EAF5FA" stroke-width="0.552088" stroke-miterlimit="10"/>
<path d="M1346.08 504.454C1346.29 472.46 1301.1 480.371 1233.79 396.285C1229.85 391.36 1226.12 386.173 1222.31 381.222C1209.23 364.226 1196.19 347.732 1182.14 335.508C1140.44 298.901 1100.07 294.558 1051.45 301.749C1018.67 306.593 982.171 319.755 938.538 337.997C925.374 343.501 912.276 349.505 899.121 355.429C870.615 368.27 840.366 381.303 812.464 380.798C784.223 380.279 762.746 369.328 740.84 360.273C715.237 349.754 687.562 339.187 656.211 331.088C645.262 328.278 633.822 325.816 622.048 323.884C600.224 320.231 577.098 317.883 554.126 318.132C526.6 318.436 500.197 322.171 475.484 323.289C424.977 325.297 380.967 318.577 336.768 324.869C323.572 326.741 310.4 329.688 297.189 334.463" stroke="#EAF5FA" stroke-width="0.552088" stroke-miterlimit="10"/>
<path d="M1347.95 499.765C1348.14 470.969 1302 483.754 1233.24 399.712C1229.3 394.902 1225.57 389.839 1221.77 384.995C1208.71 368.33 1195.81 352.118 1182.05 339.809C1141.11 302.893 1101.81 295.423 1053.13 300.953C1020.9 304.61 984.686 316.612 941.068 334.185C928.016 339.445 915.032 345.223 902.001 350.958C873.769 363.391 843.994 376.176 816.342 376.832C788.355 377.487 766.463 368.809 744.173 361.755C718.12 353.57 690.189 345.231 658.9 338.785C647.969 336.549 636.596 334.588 624.911 333.059C603.266 330.15 580.403 328.163 557.698 328.21C530.494 328.27 504.32 330.977 479.787 330.806C429.621 330.193 385.944 319.764 341.621 322.479C328.387 323.285 315.141 325.173 301.813 328.938" stroke="#EAF5FA" stroke-width="0.552088" stroke-miterlimit="10"/>
<path d="M1349.82 495.07C1349.99 469.475 1302.91 487.1 1232.68 403.13C1228.75 398.431 1225.02 393.493 1221.24 388.76C1208.19 372.424 1195.43 356.496 1181.95 344.105C1141.78 306.885 1103.54 296.318 1054.8 300.147C1023.13 302.636 987.195 313.459 943.591 330.369C930.652 335.384 917.783 340.931 904.878 346.482C876.92 358.504 847.622 371.045 820.218 372.861C792.483 374.694 770.179 368.283 747.504 363.233C721 357.382 692.812 351.27 661.588 346.482C650.678 344.824 639.367 343.364 627.773 342.237C606.305 340.074 583.709 338.451 561.267 338.288C534.384 338.1 508.44 339.783 484.086 338.323C434.262 335.093 390.917 320.95 346.474 320.094C333.205 319.832 319.882 320.663 306.433 323.417" stroke="#EAF5FA" stroke-width="0.552088" stroke-miterlimit="10"/>
<path d="M1351.69 490.376C1351.84 467.98 1303.85 490.415 1232.12 406.552C1228.2 401.961 1224.46 397.164 1220.7 392.529C1207.65 376.558 1195.04 360.877 1181.85 348.405C1142.44 310.881 1105.27 297.252 1056.48 299.351C1025.35 300.687 989.704 310.328 946.118 326.557C933.293 331.333 920.536 336.648 907.759 342.01C880.074 353.626 851.25 365.919 824.096 368.895C796.615 371.902 773.895 367.765 750.837 364.715C723.886 361.194 695.439 357.314 664.277 354.179C653.387 353.099 642.138 352.14 630.635 351.412C609.347 349.998 587.017 348.731 564.836 348.366C538.274 347.934 512.557 348.589 488.385 345.844C438.903 339.993 395.891 322.141 351.327 317.708C338.019 316.38 324.623 316.153 311.054 317.897" stroke="#EAF5FA" stroke-width="0.552088" stroke-miterlimit="10"/>
<path d="M1353.56 485.686C1353.69 466.489 1304.79 493.7 1231.57 409.978C1227.65 405.498 1223.91 400.83 1220.16 396.298C1207.13 380.656 1194.66 365.263 1181.75 352.701C1143.11 314.873 1106.99 298.22 1058.16 298.545C1027.57 298.751 992.216 307.189 948.644 322.741C935.932 327.276 923.289 332.36 910.638 337.53C883.228 348.735 854.881 360.787 827.974 364.92C800.746 369.101 777.612 367.237 754.171 366.188C726.769 365.002 698.066 363.348 666.966 361.866C656.096 361.361 644.912 360.907 633.498 360.577C612.389 359.909 590.321 359.005 568.405 358.431C542.164 357.755 516.676 357.382 492.685 353.347C443.544 344.88 400.865 323.314 356.177 315.309C342.834 312.915 329.362 311.63 315.674 312.367" stroke="#EAF5FA" stroke-width="0.552088" stroke-miterlimit="10"/>
<path d="M1355.43 480.991C1355.54 464.994 1305.75 496.946 1231.01 413.4C1227.1 409.027 1223.36 404.487 1219.63 400.067C1206.61 384.751 1194.28 369.644 1181.65 357.001C1143.77 318.868 1108.7 299.226 1059.83 297.748C1029.78 296.84 994.725 304.066 951.171 318.928C938.57 323.228 926.043 328.077 913.516 333.058C886.379 343.856 858.506 355.66 831.85 360.958C804.875 366.312 781.325 366.723 757.504 367.674C729.655 368.822 700.693 369.396 669.654 369.571C658.806 369.644 647.683 369.691 636.36 369.76C615.428 369.837 593.628 369.293 571.977 368.518C546.057 367.593 520.796 366.196 496.987 360.872C448.188 349.784 405.842 324.505 361.033 312.928C347.655 309.467 334.106 307.124 320.297 306.85" stroke="#EAF5FA" stroke-width="0.552088" stroke-miterlimit="10"/>
<path d="M1357.3 476.302C1357.39 463.504 1306.72 500.159 1230.45 416.827C1226.55 412.561 1222.8 408.15 1219.09 403.841C1206.1 388.854 1193.9 374.031 1181.55 361.301C1144.44 322.861 1110.41 300.272 1061.51 296.952C1031.99 294.948 997.24 300.948 953.698 315.121C941.212 319.186 928.796 323.799 916.396 328.591C889.533 338.978 862.137 350.538 835.728 356.997C809.007 363.528 785.042 366.205 760.838 369.161C732.538 372.643 703.317 375.444 672.343 377.273C661.515 377.924 650.457 378.472 639.219 378.939C618.467 379.761 596.932 379.577 575.543 378.596C549.941 377.427 524.913 375.003 501.284 368.394C452.827 354.688 410.813 325.696 365.883 310.542C352.467 306.015 338.844 302.615 324.915 301.33" stroke="#EAF5FA" stroke-width="0.552088" stroke-miterlimit="10"/>
<path d="M1359.18 471.608C1359.24 462.009 1307.7 503.328 1229.9 420.245C1226 416.082 1222.25 411.807 1218.55 407.606C1205.58 392.945 1193.52 378.408 1181.45 365.597C1145.11 326.852 1112.1 301.351 1063.19 296.147C1034.19 293.063 999.755 297.83 956.224 311.301C943.85 315.13 931.553 319.503 919.276 324.111C892.687 334.091 865.765 345.402 839.609 353.022C813.141 360.727 788.761 365.679 764.174 370.634C735.424 376.45 705.946 381.479 675.037 384.965C664.23 386.19 653.234 387.244 642.088 388.113C621.515 389.685 600.242 389.861 579.118 388.674C553.837 387.257 529.039 383.809 505.586 375.911C457.47 359.588 415.789 326.882 370.736 308.157C357.284 302.563 343.585 298.1 329.538 295.809" stroke="#EAF5FA" stroke-width="0.552088" stroke-miterlimit="10"/>
<path d="M1361.05 466.913C1361.09 460.514 1308.7 506.459 1229.34 423.667C1225.45 419.606 1221.7 415.465 1218.02 411.374C1205.06 397.043 1193.14 382.793 1181.35 369.893C1145.77 330.844 1113.78 302.469 1064.87 295.346C1036.39 291.2 1002.26 294.725 958.751 307.488C946.492 311.086 934.306 315.219 922.156 319.639C895.841 329.208 869.396 340.275 843.488 349.056C817.273 357.934 792.477 365.16 767.508 372.116C738.31 380.266 708.573 387.522 677.726 392.662C666.939 394.465 656.008 396.02 644.95 397.287C624.554 399.605 603.549 400.14 582.691 398.752C557.73 397.09 533.159 392.614 509.888 383.427C462.115 364.483 420.766 328.069 375.592 305.767C362.102 299.106 348.329 293.585 334.162 290.287" stroke="#EAF5FA" stroke-width="0.552088" stroke-miterlimit="10"/>
<path d="M1362.92 462.223C1362.94 459.024 1309.71 509.551 1228.78 427.093C1224.9 423.136 1221.15 419.131 1217.47 415.148C1204.54 401.142 1192.75 387.179 1181.25 374.197C1146.43 334.844 1115.45 303.633 1066.54 294.549C1038.56 289.354 1004.78 291.705 961.272 303.676C949.127 307.064 937.054 310.936 925.03 315.168C898.989 324.329 873.018 335.148 847.36 345.089C821.398 355.146 796.191 364.642 770.836 373.598C741.187 384.083 711.194 393.565 680.409 400.363C669.643 402.744 658.773 404.8 647.807 406.466C627.59 409.528 606.85 410.423 586.254 408.83C561.614 406.924 537.273 401.425 514.182 390.948C466.75 369.387 425.734 329.259 380.44 303.385C366.914 295.658 353.065 289.08 338.779 284.771" stroke="#EAF5FA" stroke-width="0.552088" stroke-miterlimit="10"/>
<path d="M1364.79 457.529C1364.79 457.529 1310.73 512.601 1228.23 430.516C1145.73 348.43 1117.33 259.865 963.801 299.865C857.711 327.508 757.628 395.309 650.675 415.64C606.67 424.005 560.551 420.065 518.487 398.465C471.397 374.283 430.714 330.446 385.296 300.995C371.732 292.202 357.812 284.565 343.403 279.246" stroke="#EAF5FA" stroke-width="0.552088" stroke-miterlimit="10"/>
</svg>
