<svg width="20" height="20" viewBox="0 0 20 20" fill="none" xmlns="http://www.w3.org/2000/svg">
<path d="M18.7167 5.00016C18.075 5.29183 17.3834 5.4835 16.6667 5.57516C17.4 5.1335 17.9667 4.4335 18.2334 3.59183C17.5417 4.0085 16.775 4.30016 15.9667 4.46683C15.3084 3.75016 14.3834 3.3335 13.3334 3.3335C11.375 3.3335 9.77502 4.9335 9.77502 6.9085C9.77502 7.19183 9.80836 7.46683 9.86669 7.72516C6.90002 7.57516 4.25836 6.15016 2.50002 3.99183C2.19169 4.51683 2.01669 5.1335 2.01669 5.7835C2.01669 7.02516 2.64169 8.12516 3.60836 8.75016C3.01669 8.75016 2.46669 8.5835 1.98336 8.3335V8.3585C1.98336 10.0918 3.21669 11.5418 4.85002 11.8668C4.32572 12.0109 3.77505 12.0309 3.24169 11.9252C3.46803 12.6356 3.9113 13.2572 4.5092 13.7026C5.1071 14.148 5.82956 14.3949 6.57502 14.4085C5.31141 15.4089 3.74503 15.9497 2.13336 15.9418C1.85002 15.9418 1.56669 15.9252 1.28336 15.8918C2.86669 16.9085 4.75002 17.5002 6.76669 17.5002C13.3334 17.5002 16.9417 12.0502 16.9417 7.32516C16.9417 7.16683 16.9417 7.01683 16.9334 6.8585C17.6334 6.3585 18.2334 5.72516 18.7167 5.00016Z" fill="#F8F8F8"/>
</svg>
