<svg width="38" height="38" viewBox="0 0 38 38" fill="none" xmlns="http://www.w3.org/2000/svg">
<g filter="url(#filter0_d_122_894)">
<rect x="4" width="30" height="30" rx="15" fill="white"/>
<path d="M15.3886 17.2212C15.4105 17.3004 15.4477 17.3744 15.4982 17.4391C15.5487 17.5038 15.6115 17.558 15.6829 17.5985C15.7543 17.6389 15.833 17.6649 15.9145 17.675C15.996 17.685 16.0786 17.679 16.1577 17.6571C16.2369 17.6352 16.3109 17.5979 16.3756 17.5474C16.4403 17.4969 16.4945 17.4342 16.5349 17.3628C16.5754 17.2913 16.6014 17.2126 16.6115 17.1312C16.6215 17.0497 16.6155 16.967 16.5936 16.8879L15.3886 17.2212ZM11.8002 8.43791C11.7208 8.4147 11.6376 8.40751 11.5553 8.41673C11.4731 8.42596 11.3935 8.45143 11.3212 8.49165C11.2489 8.53188 11.1853 8.58607 11.134 8.65107C11.0828 8.71607 11.045 8.7906 11.0229 8.87032C11.0007 8.95005 10.9946 9.03338 11.0048 9.11549C11.0151 9.1976 11.0416 9.27685 11.0828 9.34865C11.1239 9.42044 11.1789 9.48335 11.2446 9.53372C11.3102 9.58409 11.3852 9.62092 11.4652 9.64207L11.8002 8.43791ZM25.9569 17.6046C26.0383 17.5858 26.1151 17.5508 26.1827 17.5018C26.2504 17.4528 26.3075 17.3908 26.3508 17.3193C26.394 17.2479 26.4225 17.1685 26.4346 17.0858C26.4466 17.0031 26.442 16.9189 26.4209 16.8381C26.3999 16.7572 26.3628 16.6815 26.312 16.6152C26.2611 16.5489 26.1975 16.4935 26.1249 16.4522C26.0523 16.411 25.9721 16.3847 25.8891 16.3749C25.8062 16.3652 25.7221 16.3721 25.6419 16.3954L25.9569 17.6046ZM17.6311 19.1329C17.8894 20.0662 17.3227 21.0521 16.3194 21.3129L16.6336 22.5221C18.2811 22.0946 19.2877 20.4371 18.8361 18.7996L17.6311 19.1329ZM16.3194 21.3129C15.3094 21.5754 14.2961 20.9887 14.0361 20.0471L12.8311 20.3804C13.2811 22.0096 14.9927 22.9487 16.6336 22.5221L16.3194 21.3129ZM14.0361 20.0471C13.7777 19.1137 14.3444 18.1279 15.3477 17.8671L15.0336 16.6587C13.3861 17.0862 12.3786 18.7429 12.8311 20.3804L14.0361 20.0471ZM15.3477 17.8671C16.3577 17.6046 17.3711 18.1912 17.6311 19.1329L18.8361 18.7996C18.3861 17.1704 16.6744 16.2312 15.0336 16.6579L15.3477 17.8671ZM16.5936 16.8879L14.8002 10.3962L13.5952 10.7296L15.3886 17.2212L16.5936 16.8879ZM13.2202 8.83124L11.8002 8.43791L11.4652 9.64207L12.8861 10.0362L13.2202 8.83124ZM14.8002 10.3962C14.6945 10.0211 14.4934 9.67978 14.2165 9.40551C13.9396 9.13124 13.5963 8.93339 13.2202 8.83124L12.8877 10.0362C13.2419 10.1346 13.5052 10.4037 13.5952 10.7296L14.8002 10.3962ZM18.3919 19.5712L25.9569 17.6046L25.6427 16.3954L18.0769 18.3621L18.3919 19.5712Z" fill="#8F9294"/>
<path d="M25.1044 9.69707C24.7002 8.23374 24.4977 7.50207 23.9044 7.16957C23.3094 6.83624 22.5552 7.03291 21.0469 7.42541L19.4469 7.84041C17.9386 8.23207 17.1844 8.42874 16.8419 9.00541C16.4986 9.58124 16.7002 10.3129 17.1044 11.7754L17.5336 13.3279C17.9377 14.7904 18.1394 15.5221 18.7336 15.8546C19.3277 16.1879 20.0819 15.9912 21.5902 15.5996L23.1902 15.1829C24.6986 14.7912 25.4527 14.5954 25.7961 14.0196C25.9844 13.7029 26.0086 13.3396 25.9244 12.8337" stroke="#8F9294" stroke-linecap="round"/>
</g>
<defs>
<filter id="filter0_d_122_894" x="0" y="0" width="38" height="38" filterUnits="userSpaceOnUse" color-interpolation-filters="sRGB">
<feFlood flood-opacity="0" result="BackgroundImageFix"/>
<feColorMatrix in="SourceAlpha" type="matrix" values="0 0 0 0 0 0 0 0 0 0 0 0 0 0 0 0 0 0 127 0" result="hardAlpha"/>
<feOffset dy="4"/>
<feGaussianBlur stdDeviation="2"/>
<feComposite in2="hardAlpha" operator="out"/>
<feColorMatrix type="matrix" values="0 0 0 0 0 0 0 0 0 0 0 0 0 0 0 0 0 0 0.1 0"/>
<feBlend mode="normal" in2="BackgroundImageFix" result="effect1_dropShadow_122_894"/>
<feBlend mode="normal" in="SourceGraphic" in2="effect1_dropShadow_122_894" result="shape"/>
</filter>
</defs>
</svg>
